<?xml version="1.0" encoding="UTF-8"?>
<svg version="1.1" viewBox="0 0 1600 1272" width="1280" height="1280" xmlns="http://www.w3.org/2000/svg">
<path transform="translate(1077,349)" d="m0 0c0.33 0.99 0.66 1.98 1 3 0.497 1.39 0.497 1.39 1 2.8 0.984 3.16 1.51 6.11 1.93 9.39 0.603 4.2 1.36 8.18 2.56 12.2 1.56 5.35 2.3 10.7 2.97 16.2 0.442 3.35 0.442 3.35 1.49 6.45 1.68 5.58 1.96 11.4 2.54 17.2 0.878 9.28 0.878 9.28 2.5 18.4 1.6 7.52 1.99 15.2 2.57 22.9 0.0644 0.828 0.129 1.66 0.195 2.51 2.97 38.4 2.97 76.9-0.195 115-0.0614 0.763-0.123 1.53-0.186 2.31-0.608 7.45-1.29 14.8-2.91 22.1-0.637 2.99-1.04 6-1.46 9.03-3.87 28.2-11.1 56.9-22 83.2-0.379 0.93-0.757 1.86-1.15 2.82-13.9 34.1-30.9 66-54.9 94.2-0.831 1.02-1.66 2.03-2.52 3.08-6.32 7.65-13.1 14.8-20.1 21.8-0.89 0.899-1.78 1.8-2.7 2.72-0.835 0.831-1.67 1.66-2.53 2.52-0.751 0.749-1.5 1.5-2.28 2.27-1.87 1.61-1.87 1.61-3.87 1.61v2c-1.55 1.42-3.17 2.76-4.81 4.06-3.81 3.04-7.58 6.11-11.3 9.25-18.3 14.9-38.3 26.9-59.7 36.7-2.65 1.24-5.23 2.58-7.82 3.93-63.1 32.8-138 44.8-208 49-1.48 0.0886-2.96 0.181-4.45 0.279-15.4 1.01-30.8 1.01-46.3 0.986-3.64-0.00572-7.28-0.00239-10.9 0.00357-2.86 0.00365-5.72 0.00245-8.58-1.28e-4 -1.98-9.66e-4 -3.96 2e-3 -5.94 0.00513-8.74-0.0223-17.4-0.462-26.1-1.14-1.17-6.58-1.17-6.58-0.391-10 0.172-0.758 0.343-1.52 0.52-2.3 0.205-0.824 0.41-1.65 0.621-2.5 0.219-0.892 0.438-1.78 0.664-2.7 5.67-22.1 13.3-43.6 23.4-64 1.1-2.24 2.17-4.48 3.24-6.74 11-23.1 25.4-44.6 41-64.7 0.606-0.799 1.21-1.6 1.84-2.42 4.65-6.01 9.75-11.5 15-17.1 2.82-2.97 5.58-5.97 8.23-9.09 5.14-5.91 10.7-11.4 16.3-16.9 1.92-1.93 3.84-3.86 5.75-5.79 7-7.04 14.1-13.6 21.9-19.7 1.27-1.02 2.53-2.05 3.79-3.08 3.72-3 7.46-5.97 11.2-8.92 0.593-0.467 1.19-0.935 1.8-1.42 19.2-15.1 40-28.4 61.2-40.6 0.718-0.416 1.44-0.832 2.18-1.26 30.9-17.8 63.6-31.8 96.8-44.7 0.932-0.367 1.86-0.734 2.83-1.11 13.1-5.13 26.5-9.21 40-13.3 1.32-0.398 1.32-0.398 2.67-0.804 2.55-0.765 5.11-1.52 7.66-2.28 0.759-0.227 1.52-0.453 2.3-0.687 3.77-1.11 7.55-2.14 11.4-3.07 0.709-0.174 1.42-0.349 2.15-0.528 2.28-0.279 3.87 0.0625 6.05 0.749-8 4-8 4-9.95 4.88-2.16 1.1-2.16 1.1-4.27 2.91-3.56 2.83-7.35 5.14-11.2 7.52-34.9 21.8-69.5 46.4-99.8 74.2-3.5 3.15-7.14 6.1-10.8 9.06-15.2 12.4-30.4 25.4-43.3 40.2-4.22 4.86-8.65 9.53-13.1 14.2-13.1 13.9-25.2 28.6-36.2 44.1-1.38 1.94-2.78 3.88-4.18 5.81-16.5 23-30.6 46.8-43.2 72.1 68-4.63 141-29.6 197-68 1.23-0.815 2.45-1.63 3.68-2.45 7.62-5.11 14.9-10.5 22-16.3 3.49-2.85 7.02-5.52 10.7-8.08 17.4-12.5 32.4-29.5 45.3-46.5 1.23-1.6 2.49-3.18 3.76-4.76 33.1-41.6 54.7-95.8 63.1-148 0.306-1.89 0.626-3.79 0.959-5.68 4.34-24.8 4.75-49.9 5.49-75.1-0.759 0.855-1.52 1.71-2.3 2.59-1 1.12-2.01 2.23-3.01 3.35-0.5 0.564-0.999 1.13-1.51 1.71-3.83 4.24-3.83 4.24-7.17 5.35v2c-1.92 1.54-3.83 2.9-5.88 4.25-0.983 0.65-0.983 0.65-1.99 1.31-27.7 17.8-58.2 30.9-88.9 42.8-2.88 1.12-5.75 2.25-8.62 3.4-11.3 4.52-22.8 8.41-34.5 12.1-1.91 0.617-3.82 1.23-5.73 1.85-5.48 1.77-11 3.52-16.5 5.27-0.721 0.23-1.44 0.461-2.18 0.698-11.8 3.77-23.7 7.43-35.6 10.8-33.1 9.36-65.6 19.7-96.9 34-3.23 1.48-6.48 2.92-9.73 4.35-34 15.1-66.6 34.5-94.6 59.2-1.05 0.917-1.05 0.917-2.12 1.85-1.25 1.09-2.49 2.19-3.73 3.29-2.25 1.95-4.54 3.85-6.82 5.76-11.2 9.35-20.6 19.5-29.3 31.1-0.45 0.589-0.9 1.18-1.36 1.79-33 43.2-50.5 92.5-59.1 146-0.353 2.19-0.72 4.37-1.1 6.55-1.67 9.88-2.1 19.7-2.55 29.7-0.104 2.25-0.218 4.5-0.333 6.74-0.0272 0.682-0.0543 1.36-0.0823 2.07-0.186 3.56-0.572 6.26-2.48 9.3-4.59-10.4-4.59-10.4-4-16h-1c-0.675-3.71-1.34-7.42-2-11.1l-0.578-3.17-0.547-3.09c-0.251-1.4-0.251-1.4-0.508-2.82-0.367-2.79-0.367-2.79-0.359-6.08 0.311-2.63 0.311-2.63-1.01-3.71-11.9-58.4-2.66-125 19-180 0.272-0.702 0.545-1.4 0.826-2.13 9.31-23.7 23.4-44.8 40.2-63.9 0.739-0.851 1.48-1.7 2.24-2.58 9.43-10.7 19.4-20.7 30.8-29.4 0.554-0.43 1.11-0.86 1.68-1.3 8.78-6.8 17.8-12.5 27.6-17.8 2.19-1.21 4.29-2.54 6.4-3.88 24.5-14.8 52.7-25 79.3-35.1 0.65-0.247 1.3-0.493 1.97-0.747 55.8-21.1 114-37 171-51.9 68.7-17.4 68.7-17.4 130-52.3 0.842-0.665 0.842-0.665 1.7-1.34 26.4-21 39.3-48.5 45.7-81.1 0.578-2.56 0.578-2.56 1.58-3.56zm-555 550 1 2zm2 10 1 3z" fill="#8EC904"/>
<path transform="translate(1066,394)" d="m0 0c0.049 0.71 0.098 1.42 0.148 2.15 0.0748 0.919 0.15 1.84 0.227 2.79 0.104 1.37 0.104 1.37 0.211 2.78 0.137 0.754 0.273 1.51 0.414 2.29 0.66 0.33 1.32 0.66 2 1 0.66 0.99 1.32 1.98 2 3h4c0.049 0.71 0.098 1.42 0.148 2.15 0.0748 0.919 0.15 1.84 0.227 2.79 0.0696 0.917 0.139 1.83 0.211 2.78 0.137 0.754 0.273 1.51 0.414 2.29 0.66 0.33 1.32 0.66 2 1 3.11 6.45 3.34 11.9 3 19 0 2.02 0.595 4.02 1 6h2v2c0.99 0.33 1.98 0.66 3 1 2.09 3.84 2.3 7.3 2.31 11.6 0.0168 1.13 0.0335 2.25 0.0508 3.41-0.363 2.96-0.363 2.96-1.76 4.86-1.61 1.1-1.61 1.1-3.61 1.1-0.33 0.66-0.66 1.32-1 2-0.33-0.33-0.66-0.66-1-1 0.0928 1.64 0.0928 1.64 0.188 3.31-0.188 3.69-0.188 3.69-1.5 5.62-1.69 1.06-1.69 1.06-4.69 1.06-0.33 1.98-0.66 3.96-1 6 2.97-0.495 2.97-0.495 6-1v6c1.32 0.33 2.64 0.66 4 1h-3c-0.33 1.65-0.66 3.3-1 5-0.66-0.66-1.32-1.32-2-2-2.57-0.648-2.57-0.648-5-1v3c-4.93 1.97-8.78 2.18-14 2 0.0116 0.904 0.0232 1.81 0.0352 2.74 0.0135 1.77 0.0135 1.77 0.0273 3.57 0.0116 1.17 0.0232 2.34 0.0352 3.55-0.0977 3.14-0.0977 3.14-1.1 6.14 1.32-0.66 2.64-1.32 4-2 0.66 0.99 1.32 1.98 2 3-3.75 3-3.75 3-6 3-0.33 0.66-0.66 1.32-1 2-1.32-0.33-2.64-0.66-4-1v3h-2c-1.32-7.97-1.11-16-1.06-24 0.00502-1.46 0.00959-2.91 0.0137-4.37 0.0109-3.54 0.0281-7.09 0.0488-10.6-0.759 0.855-1.52 1.71-2.3 2.59-1 1.12-2.01 2.23-3.01 3.35-0.5 0.564-0.999 1.13-1.51 1.71-3.83 4.24-3.83 4.24-7.17 5.35v2c-1.92 1.54-3.83 2.9-5.88 4.25-0.983 0.65-0.983 0.65-1.99 1.31-27.7 17.8-58.2 30.9-88.9 42.8-2.88 1.12-5.75 2.25-8.62 3.4-11.3 4.52-22.8 8.41-34.5 12.1-1.91 0.617-3.82 1.23-5.73 1.85-5.48 1.77-11 3.52-16.5 5.27-0.721 0.23-1.44 0.461-2.18 0.698-11.8 3.77-23.7 7.43-35.6 10.8-33.1 9.36-65.6 19.7-96.9 34-3.23 1.48-6.48 2.92-9.73 4.35-34 15.1-66.6 34.5-94.6 59.2-1.05 0.917-1.05 0.917-2.12 1.85-1.25 1.09-2.49 2.19-3.73 3.29-2.25 1.95-4.54 3.85-6.82 5.76-11.2 9.35-20.6 19.5-29.3 31.1-0.45 0.589-0.9 1.18-1.36 1.79-33 43.2-50.5 92.5-59.1 146-0.353 2.19-0.72 4.37-1.1 6.55-1.67 9.88-2.1 19.7-2.55 29.7-0.104 2.25-0.218 4.5-0.333 6.74-0.0272 0.682-0.0543 1.36-0.0823 2.07-0.186 3.56-0.572 6.26-2.48 9.3-4.59-10.4-4.59-10.4-4-16h-1c-0.675-3.71-1.34-7.42-2-11.1-0.191-1.05-0.382-2.09-0.578-3.17-0.18-1.02-0.361-2.04-0.547-3.09-0.168-0.932-0.335-1.86-0.508-2.82-0.367-2.79-0.367-2.79-0.359-6.08 0.311-2.63 0.311-2.63-1.01-3.71-11.9-58.4-2.66-125 19-180 0.272-0.702 0.545-1.4 0.826-2.13 9.31-23.7 23.4-44.8 40.2-63.9 0.739-0.851 1.48-1.7 2.24-2.58 9.43-10.7 19.4-20.7 30.8-29.4 0.554-0.43 1.11-0.86 1.68-1.3 8.78-6.8 17.8-12.5 27.6-17.8 2.19-1.21 4.29-2.54 6.4-3.88 24.5-14.8 52.7-25 79.3-35.1 0.65-0.247 1.3-0.493 1.97-0.747 55.8-21.1 114-37 171-51.9 68.7-17.4 68.7-17.4 130-52.3 0.842-0.665 0.842-0.665 1.7-1.34 12.8-10.2 24.2-22.2 31.5-37 1.21-2.32 2.28-2.62 4.84-2.62zm-544 505 1 2zm2 10 1 3z" fill="#8EC904"/>
<path transform="translate(897,286)" d="m0 0c1.28 0.334 1.28 0.334 2.59 0.674 35.3 9.44 70.6 25 101 46 2.01 1.42 4.04 2.81 6.06 4.21 8.08 5.6 16 11.4 23.6 17.6 2.06 1.66 4.12 3.16 6.31 4.67 0.928 0.652 1.86 1.3 2.81 1.98 0.813 0.539 1.63 1.08 2.46 1.63 2.22 3.12 1.78 5.17 1.18 8.85-0.927 3.82-2.36 7.24-4.08 10.8-0.351 0.733-0.702 1.47-1.06 2.22-3.3 6.63-7.47 11.9-12.4 17.4-1.34 1.66-2.68 3.32-4 5-4.11-0.534-6.13-2.7-9.06-5.5-0.986-0.921-1.97-1.84-2.96-2.76-0.499-0.463-0.997-0.926-1.51-1.4-33.5-30.7-76.3-51.4-119-64.3-1.65-0.51-1.65-0.51-3.34-1.03-8.54-2.56-17-4.24-25.8-5.59-1.26-0.204-2.51-0.407-3.81-0.617-4-0.631-8-1.22-12-1.76-0.713-0.0964-1.43-0.193-2.16-0.292-13.6-1.78-27.2-2.07-40.9-2.02-1.08 0.00182-2.16 0.00365-3.27 0.00552-16.1 0.0457-31.8 0.6-47.7 3.31-1.09 0.172-2.17 0.343-3.3 0.52-16 2.54-31.4 6.25-46.7 11.5-0.927 0.313-1.85 0.627-2.81 0.95-39.1 13.4-75.1 33.8-106 61.7-2.1 1.9-4.22 3.75-6.36 5.59-11 9.61-21.3 20.1-30.2 31.7-1.16 1.45-1.16 1.45-2.34 2.93-7.1 9-13.5 18.4-19.7 28.1-0.39 0.605-0.78 1.21-1.18 1.83-22.6 35.4-38 75.2-44.2 117-0.578 3.43-0.578 3.43-1.58 5.43-0.385 2.73-0.716 5.45-1 8.19-0.0869 0.834-0.174 1.67-0.263 2.53-0.659 6.71-1.07 13.4-1.36 20.2-0.04 0.913-0.0799 1.83-0.121 2.77-0.471 12.2-0.213 24.2 0.546 36.4 0.14 2.26 0.271 4.53 0.402 6.79 0.0873 1.44 0.175 2.88 0.264 4.32l0.238 3.92c-0.027 2.82-0.027 2.82 1.3 3.94 0.31 1.78 0.565 3.58 0.797 5.37 0.152 1.12 0.303 2.25 0.46 3.41 0.163 1.21 0.326 2.42 0.493 3.66 1.72 12.3 4.34 23.8 8.25 35.6 0.482 6.39-0.786 12-2.21 18.2-1.04 4.98-1.67 9.98-2.27 15-0.393 2.81-0.896 5.43-1.52 8.18-1.5 7.3-1.69 14.7-2.07 22.1-0.154 2.9-0.312 5.79-0.473 8.69-0.0374 0.684-0.0749 1.37-0.113 2.07-0.28 4.92-0.73 9.78-1.35 14.7-4.16-5.24-6.99-11.3-10.1-17.2-0.334-0.643-0.668-1.29-1.01-1.95-12.1-23.5-20.7-48.2-28-73.6-0.607-2.1-1.25-4.2-1.95-6.27-0.229-1.93-0.458-3.86-0.68-5.79-0.505-3.48-1.41-6.81-2.32-10.2h-1c-0.0606-0.904-0.121-1.81-0.184-2.74-0.0838-1.18-0.168-2.36-0.254-3.57l-0.246-3.55c-0.203-3.16-0.203-3.16-1.32-6.14v-6l-1-3c-0.297-2.31-0.505-4.62-0.719-6.94-0.177-2.12-0.177-2.12-1.28-4.06-0.0707-3.61 0.00336-7.2 0.0625-10.8 0.168-3.08 0.168-3.08-1.06-5.19-0.0968-1.86-0.131-3.73-0.133-5.59l-0.00391-3.37 0.0117-3.54c-0.00387-1.17-0.00773-2.33-0.0117-3.54 0.00129-1.11 0.00258-2.22 0.00391-3.37 0.00169-1.54 0.00169-1.54 0.00342-3.1 0.129-2.49 0.129-2.49 1.13-4.49 0.0261-3.67-0.0272-7.33-0.127-11-0.0656-4.65 0.386-8.62 1.65-13.1 0.764-3.05 0.881-6.09 1.04-9.22 0.339-6.39 0.339-6.39 1.44-9.69v-2.62c0-2.38 0-2.38 1-3.38 0.329-1.93 0.612-3.87 0.875-5.81 0.815-5.56 1.97-10.9 3.41-16.3 0.684-2.71 1.22-5.41 1.72-8.16 0.667-3.46 1.66-6.41 3.16-9.61 1.12-2.77 1.86-5.61 2.64-8.5 13.4-47.4 40.4-93.2 73.8-129 1.3-1.4 2.57-2.82 3.85-4.24 11.9-13.3 24.3-26.4 38.5-37.2 1.24-1 2.48-2 3.71-3.01 20.3-16.3 42.1-30.2 65.3-42 0.808-0.415 1.62-0.831 2.45-1.26 79.1-40.4 173-45.9 258-23.7zm-461 320 1 3zm-1 40v5h1v-5h-1zm1 15v6h1v-6h-1z" fill="#075E29"/>
<path transform="translate(1125,474)" d="m0 0h2c0.66 2.97 1.32 5.94 2 9h2c0.0825 0.887 0.165 1.77 0.25 2.69 0.507 3.39 0.507 3.39 2.75 5.75 2.5 3.21 2.51 5.57 3 9.56 1.37 3.17 1.37 3.17 3 6 1.51 2.79 2 3.75 2 7 0.54 1.78 1.13 3.54 1.76 5.29 7.9 22.6 13.5 44.9 15.9 68.8 0.205 2 0.205 2 1.29 3.93 2.43 16.4 2.19 33.3 2.19 49.8 8.16e-4 0.945 0.00163 1.89 0.00247 2.86-0.00292 29.9-0.00292 29.9-2.19 34.3-0.209 1.6-0.37 3.22-0.508 4.83-6.69 70.9-39.7 142-88.8 193-2.11 2.23-4.14 4.52-6.17 6.83-9.4 10.5-19.4 20.3-30.5 28.9-1.13 0.916-2.25 1.83-3.38 2.75-35.9 29.3-75.7 50.7-120 65.2-0.825 0.276-1.65 0.552-2.5 0.836-36.7 12.1-76.9 17.7-115 17.2-1.24-0.016-1.24-0.016-2.51-0.0322-50.5-0.959-102-13.4-147-35v-1c-0.615-0.193-1.23-0.387-1.86-0.586-1.21-0.391-1.21-0.391-2.45-0.789-0.801-0.255-1.6-0.51-2.43-0.773-2.26-0.852-2.26-0.852-5.26-2.85v-2c1.43-0.0219 1.43-0.0219 2.9-0.0442 37.4-0.609 75.8-1.58 113-7.57 3.96-0.479 7.7-0.302 11.7-0.0156 0.712 0.0438 1.42 0.0877 2.16 0.133 3.38 0.221 6.69 0.532 10 0.999 4.78 0.604 9.52 0.69 14.3 0.731 0.948 0.00966 1.9 0.0193 2.87 0.0293 3.07 0.0248 6.14 0.0374 9.22 0.045 1.05 0.00295 2.1 0.0059 3.18 0.00894 16.9 0.0108 33-1.04 49.7-3.82 2.74-0.446 5.47-0.82 8.22-1.15 65.4-8.22 131-48.6 175-96.3 0.33-0.66 0.66-1.32 1-2h2c0.231-0.544 0.461-1.09 0.699-1.65 1.66-3.01 3.85-5.42 6.11-7.98 32.3-37.6 57.4-86 65.6-135 0.431-2.52 0.939-4.92 1.61-7.39 3.19-13 4.1-26.1 3.94-39.4-0.0254-2.15-0.0464-4.29-0.0625-6.44-0.0116-0.937-0.0232-1.87-0.0352-2.84 0.0977-2.16 0.0977-2.16 1.1-3.16 0.0212-3-0.00799-6-0.0625-9-0.111-12.1 0.973-24 3.6-35.8 1.07-5.02 1.67-9.99 2.03-15.1 0.0838-1.16 0.168-2.33 0.254-3.53 0.122-2.34 0.172-4.69 0.148-7.04 0.0352-3.5 0.0352-3.5 0.535-6.88 0.579-4.19 0.573-8.21 0.5-12.4-0.134-7.92-0.134-7.92 1-10.2 1.65-10.6 1.15-21.5 1.13-32.2-0.00539-3.15-1.42e-5 -6.3 0.00635-9.45-6.6e-4 -2.02-0.00194-4.04-0.00391-6.06 0.00304-1.4 0.00304-1.4 0.00613-2.83-0.0177-4.95-0.384-9.61-1.14-14.5 0.438-2.44 0.438-2.44 1-4zm-1 71v15h1v-15h-1zm-1 24v6h1v-6h-1zm-7 75v19h1v-19h-1z" fill="#075F29"/>
<path transform="translate(980,503)" d="m0 0h13v2h8c0.33 1.32 0.66 2.64 1 4 1.98 0.33 3.96 0.66 6 1v2h2c-1.21 3.63-1.9 3.78-5.18 5.5-1.34 0.704-1.34 0.704-2.71 1.42-0.986 0.501-1.97 1-2.99 1.52-1.04 0.531-2.07 1.06-3.14 1.61-38 19.2-78.1 33.5-119 46.2-2.14 0.671-4.27 1.35-6.41 2.03-11.2 3.56-22.4 7.01-33.7 10.2-33.1 9.36-65.6 19.7-96.9 34-3.23 1.48-6.48 2.92-9.73 4.35-34 15.1-66.6 34.5-94.6 59.2-1.05 0.917-1.05 0.917-2.12 1.85-1.25 1.09-2.49 2.19-3.73 3.29-2.25 1.95-4.54 3.85-6.82 5.76-11.2 9.35-20.6 19.5-29.3 31.1-0.675 0.884-0.675 0.884-1.36 1.79-33 43.2-50.5 92.5-59.1 146-0.353 2.19-0.72 4.37-1.1 6.55-1.67 9.88-2.1 19.7-2.55 29.7-0.104 2.25-0.218 4.5-0.333 6.74-0.0272 0.682-0.0543 1.36-0.0823 2.07-0.186 3.56-0.572 6.26-2.48 9.3-4.59-10.4-4.59-10.4-4-16h-1c-0.675-3.71-1.34-7.42-2-11.1-0.191-1.05-0.382-2.09-0.578-3.17-0.18-1.02-0.361-2.04-0.547-3.09-0.168-0.932-0.335-1.86-0.508-2.82-0.367-2.79-0.367-2.79-0.359-6.08 0.311-2.63 0.311-2.63-1.01-3.71-9.62-47.2-5.03-102 8-148 0.33 0.99 0.66 1.98 1 3h2c0.33 2.97 0.66 5.94 1 9 0.99-0.33 1.98-0.66 3-1 2.05 0.165 4.03 0.506 6.06 0.844 2.16 0.301 2.16 0.301 4.94-0.844 1.03-2.33 1.03-2.33 1.69-5.06l0.762-2.79c0.182-0.71 0.364-1.42 0.551-2.15-0.66-0.33-1.32-0.66-2-1 0.66-0.33 1.32-0.66 2-1v-2h-2c-1.24-7.15-0.859-12.3 2-19 0.66 0.33 1.32 0.66 2 1 0.495-2.97 0.495-2.97 1-6 1.6-0.337 3.21-0.669 4.81-1 0.893-0.186 1.79-0.371 2.71-0.562 4.11-0.725 8.31-0.438 12.5-0.438-2 3-2 3-3 4 2.31 0.33 4.62 0.66 7 1-0.99-0.33-1.98-0.66-3-1v-4c0.99-0.66 1.98-1.32 3-2v-2c0.99 0.33 1.98 0.66 3 1v-2h-2c-0.33-1.32-0.66-2.64-1-4h2v2l2.52-0.438c1.09-0.186 2.17-0.371 3.29-0.562 1.08-0.186 2.16-0.371 3.27-0.562 2.92-0.438 2.92-0.438 5.92-0.438 0.268-0.722 0.536-1.44 0.812-2.19 1.19-2.81 1.19-2.81 2.75-5.19 1.74-3.19 1.96-6.05 2.44-9.62 2-1 2-1 4.31-0.75 2.9-0.0332 2.9-0.0332 5.44-2.31 2.61-3.41 3-5.7 3.25-9.94 0.557 0.309 1.11 0.619 1.69 0.938 2.47 1.13 4.62 1.71 7.31 2.06 0.66-0.33 1.32-0.66 2-1-0.33-0.99-0.66-1.98-1-3 3.75-3 3.75-3 6-3v-4c9.88-2.4 9.88-2.4 14.1-0.875 2 2 2.59 3.09 2.88 5.88h-3v3c3.37-2.27 3.37-2.27 5-6h-2v-2h2v-3h-2v-3h4v-2h2v-2c-0.66-0.33-1.32-0.66-2-1 2.46-1.23 4.28-1.07 7-1v-4c1.32 0.33 2.64 0.66 4 1 0.557-0.99 0.557-0.99 1.12-2 0.928-0.99 0.928-0.99 1.88-2 2-0.0425 4-0.0408 6 0 2.34-1.38 2.34-1.38 4-3v2c1.94-0.276 1.94-0.276 4-1 0.99-1.49 0.99-1.49 2-3 0.99-0.33 1.98-0.66 3-1l1 1c0.33-3.3 0.66-6.6 1-10 1.32-0.33 2.64-0.66 4-1v3h-3c0.33 1.98 0.66 3.96 1 6h2c0.33-1.65 0.66-3.3 1-5 0.66 0.33 1.32 0.66 2 1v2h2c0.33-2.31 0.66-4.62 1-7 1.32-0.33 2.64-0.66 4-1 0.33-1.32 0.66-2.64 1-4 5.44-0.99 5.44-0.99 11-2l-1-1h-3v-2c1.41-0.366 2.83-0.717 4.25-1.06 0.789-0.197 1.58-0.394 2.39-0.598 2.49-0.358 3.98-0.0658 6.36 0.66h2v-3c0.66 0.33 1.32 0.66 2 1-0.33 0.66-0.66 1.32-1 2h2c0.33-1.65 0.66-3.3 1-5h3v5c0.33-1.65 0.66-3.3 1-5 0.927-0.133 1.85-0.266 2.81-0.402 1.8-0.265 1.8-0.265 3.63-0.535 1.19-0.174 2.39-0.348 3.62-0.527 2.82-0.225 2.82-0.225 3.94-1.54 0.362-1.33 0.697-2.66 1-4h-4v-2c-5.68 0.585-5.68 0.585-11.1 2.19-3.61 1.02-5.48 0.267-8.88-1.19-0.33 0.66-0.66 1.32-1 2-3.06 0.625-3.06 0.625-6 1v3l-2 1c0.66 0.33 1.32 0.66 2 1-0.33 0.99-0.66 1.98-1 3-4.78 1.14-7.42 0.62-12-1-3.25-0.168-3.25-0.168-6 0v2c-0.99 0.33-1.98 0.66-3 1-1.15 1.97-1.15 1.97-2 4-1 1-1 1-4.06 1.06-0.969-0.0206-1.94-0.0412-2.94-0.0625v-3h-2c-0.33 0.66-0.66 1.32-1 2h-9c-2 3.76-2 3.76-3 7-2.06 0.688-2.06 0.688-4 1v2h2v3h2c-0.33 0.99-0.66 1.98-1 3-1.67 0.186-1.67 0.186-3.38 0.375-1.54 0.203-3.08 0.412-4.62 0.625-0.852 0.111-1.7 0.222-2.58 0.336-5.75 0.914-8.54 2.08-12.4 6.66-0.99 0.33-1.98 0.66-3 1l-2 2c-0.99-0.33-1.98-0.66-3-1h-4v2c2.1 0.081 4.21 0.139 6.31 0.188 1.17 0.0348 2.34 0.0696 3.55 0.105 3.47-0.324 3.98-0.766 6.14-3.29h3v2h-2v2c-3.37 1.5-5.2 2-9 2-0.33 0.66-0.66 1.32-1 2-1.94-0.375-1.94-0.375-4-1-0.33-0.66-0.66-1.32-1-2-0.928 0.516-1.86 1.03-2.81 1.56-3.19 1.44-3.19 1.44-6.19 0.438-0.0825 0.598-0.165 1.2-0.25 1.81-0.974 2.84-2.15 3.74-4.75 5.19-0.99-0.33-1.98-0.66-3-1 0.495-2.97 0.495-2.97 1-6-1.98 0.66-3.96 1.32-6 2v4c0.638 0.121 1.28 0.242 1.93 0.367 0.826 0.168 1.65 0.335 2.5 0.508 0.824 0.162 1.65 0.325 2.5 0.492 0.682 0.209 1.36 0.418 2.07 0.633 0.33 0.66 0.66 1.32 1 2-5.42 1.23-5.42 1.23-8.38 0.0625-0.536-0.351-1.07-0.701-1.62-1.06v2c-0.66 0.33-1.32 0.66-2 1 0.33 0.66 0.66 1.32 1 2h-3v-4h-2c0.33 1.32 0.66 2.64 1 4-0.66-0.33-1.32-0.66-2-1v-2c-1.98 0.33-3.96 0.66-6 1-0.512-6.4-0.119-9.98 4-15 0.33 0.66 0.66 1.32 1 2 1.98-0.66 3.96-1.32 6-2v-8c0.66 0.33 1.32 0.66 2 1 0.33-0.99 0.66-1.98 1-3h6v-6c0.804-0.268 1.61-0.536 2.44-0.812 0.846-0.392 1.69-0.784 2.56-1.19 0.495-1.49 0.495-1.49 1-3h3v2h2c0.33-0.66 0.66-1.32 1-2-0.186 0.598-0.371 1.2-0.562 1.81-0.658 2.35-0.658 2.35 0.562 5.19 2.35-1.9 2.35-1.9 2.12-5.12-0.0412-0.949-0.0825-1.9-0.125-2.88h2v2c0.99-0.33 1.98-0.66 3-1v-5l-4-1c-0.288-3.05-0.44-5.96 0-9 2.25-1.81 2.25-1.81 5-3 1.37-1.3 2.72-2.62 4-4 4 2 4 2 5.94 3.06 2.33 1.06 4.54 1.52 7.06 1.94-0.33 0.99-0.66 1.98-1 3-3.63-0.33-7.26-0.66-11-1v4c0.66-0.33 1.32-0.66 2-1 1.7-0.226 3.41-0.409 5.12-0.562 1.37-0.126 1.37-0.126 2.76-0.254 0.699-0.0606 1.4-0.121 2.12-0.184 0.33-1.32 0.66-2.64 1-4h3v8h1c0.33-2.97 0.66-5.94 1-9 7.42-2.01 7.42-2.01 10.8-1.94 2.3 0.159 2.3 0.159 4-1.56 0.392-0.495 0.784-0.99 1.19-1.5-0.33-0.99-0.66-1.98-1-3 0.99-0.33 1.98-0.66 3-1 0.33-0.66 0.66-1.32 1-2-2.48 0.99-2.48 0.99-5 2v-6l5-1c0.66-1.98 1.32-3.96 2-6 1.03 0.0412 2.06 0.0825 3.12 0.125 3.77 0.0709 3.77 0.0709 6.75-1.12 6.27-2.01 12.7-1.09 19.1 0 0.99-1.98 0.99-1.98 2-4h2c-0.33-1.65-0.66-3.3-1-5 0.99-0.33 1.98-0.66 3-1v-8h3l1 1c0.66-0.99 1.32-1.98 2-3 2.6 0.477 5.21 0.956 7.81 1.44 0.738 0.135 1.48 0.269 2.24 0.408 3.06 0.568 5.99 1.17 8.95 2.15-0.33-0.99-0.66-1.98-1-3 1.32-0.33 2.64-0.66 4-1v-2c-1.65-0.33-3.3-0.66-5-1 0.99-0.33 1.98-0.66 3-1v-2h2c0.33-1.32 0.66-2.64 1-4 2.48-0.495 2.48-0.495 5-1 0.33 0.66 0.66 1.32 1 2 3.28-0.752 3.28-0.752 5-4-0.33-0.66-0.66-1.32-1-2 1.98-0.66 3.96-1.32 6-2v-2c1.32 0.66 2.64 1.32 4 2v-2c0.99 0.33 1.98 0.66 3 1h4c2.75 2 2.75 2 5 4 0.33-0.66 0.66-1.32 1-2h7c0.33 0.99 0.66 1.98 1 3 1.65-0.33 3.3-0.66 5-1-0.33 1.65-0.66 3.3-1 5h-3c1.27 2.04 2.61 4.04 4 6h2c0.625 2.88 0.625 2.88 1 6-0.66 0.66-1.32 1.32-2 2v3h-3v4h-2c0.66 1.32 1.32 2.64 2 4-1.98 0.66-3.96 1.32-6 2v-2h-4v2c-1.65 0.33-3.3 0.66-5 1v-2c-1.93-1.15-1.93-1.15-4-1-0.536 0.825-1.07 1.65-1.62 2.5-0.784 0.825-1.57 1.65-2.38 2.5-1.95 0-3.89-0.00889-5.84-0.129-4.1 0.244-7.26 2.32-10.2 5.13-1.21 2.42-1.57 4.28-2 7h-2v2h3c0.66-1.65 1.32-3.3 2-5h2v3h-2v2c1.65 0.33 3.3 0.66 5 1v-2h6c0.249-0.614 0.498-1.23 0.754-1.86 2.25-3.86 6.09-4.97 10.2-6.14 3.7-0.304 7.3-0.249 11 0 1-3.58 1-3.58 0-7 2.46-0.389 4.91-0.761 7.38-1.12 1.05-0.168 1.05-0.168 2.12-0.34 1.83-0.263 3.67-0.407 5.51-0.535 0.66 0.66 1.32 1.32 2 2 3.58 0.167 3.58 0.167 7 0-1.32-0.66-2.64-1.32-4-2v-1c0.748 0.0348 1.5 0.0696 2.27 0.105 1.48 0.0406 1.48 0.0406 2.98 0.082 0.975 0.0348 1.95 0.0696 2.95 0.105 3.24-0.339 4.3-1.3 6.8-3.29 2.22-0.547 2.22-0.547 4.5-0.75 1.13-0.116 1.13-0.116 2.28-0.234 2.26-0.0159 4.07 0.339 6.22 0.984 0.33-1.65 0.66-3.3 1-5l-2-1c0.66-1.65 1.32-3.3 2-5 6.4-0.303 10.5-0.466 16 3 3.02-0.842 3.02-0.842 6-2 0.715 0.182 1.43 0.364 2.17 0.551 4.02 0.637 7.27-0.418 11.1-1.49 0.741-0.195 1.48-0.391 2.24-0.592 1.82-0.481 3.63-0.974 5.44-1.47 0.116-0.634 0.232-1.27 0.352-1.92 0.648-2.08 0.648-2.08 3.02-3.33 2.66-0.76 4.88-0.75 7.62-0.75v-2h2v-2l-2-1c0.33-0.66 0.66-1.32 1-2 0.577-0.124 1.15-0.247 1.75-0.375 2.48-0.513 2.48-0.513 4.69-2.75 2.56-1.88 2.56-1.88 5.06-1.75 2.54 0.887 5.03 1.82 7.5 2.88 0.66-0.66 1.32-1.32 2-2 0.33 0.66 0.66 1.32 1 2h2c0.33-0.99 0.66-1.98 1-3h-8v-1h6v-2h4c0.66-0.66 1.32-1.32 2-2 1.64 0.526 1.64 0.526 3.31 1.06 3.6 1.27 3.6 1.27 6.69-0.0625 0.66-0.99 1.32-1.98 2-3h2v-2c1.18 0.0412 2.35 0.0825 3.56 0.125 4.1 0 7.53-0.799 11.4-2.12 0.949-0.247 1.9-0.495 2.88-0.75 2.49-1.13 2.49-1.13 2.94-4.38 0.0619-0.949 0.124-1.9 0.188-2.88 0.33 0.66 0.66 1.32 1 2h2v-2c1.32 0.33 2.64 0.66 4 1v3h4c-0.33-1.32-0.66-2.64-1-4 0.66 0.33 1.32 0.66 2 1v3c2.31-0.66 4.62-1.32 7-2v-9c2.31 0.33 4.62 0.66 7 1v-3h4v-4-4zm-458 396 1 2zm2 10 1 3z" fill="#8CCB05"/>
<path transform="translate(1077,349)" d="m0 0c0.33 0.99 0.66 1.98 1 3 0.331 0.924 0.663 1.85 1 2.8 0.984 3.16 1.51 6.11 1.93 9.39 0.603 4.2 1.36 8.18 2.56 12.2 1.56 5.35 2.3 10.7 2.97 16.2 0.442 3.35 0.442 3.35 1.49 6.45 1.68 5.58 1.96 11.4 2.54 17.2 0.878 9.28 0.878 9.28 2.5 18.4 1.6 7.52 1.99 15.2 2.57 22.9 0.0966 1.24 0.0966 1.24 0.195 2.51 2.97 38.4 2.97 76.9-0.195 115-0.0922 1.14-0.0922 1.14-0.186 2.31-0.608 7.45-1.29 14.8-2.91 22.1-0.637 2.99-1.04 6-1.46 9.03-3.87 28.2-11.1 56.9-22 83.2-0.379 0.93-0.757 1.86-1.15 2.82-13.9 34.1-30.9 66-54.9 94.2-0.853 1.04-1.7 2.07-2.55 3.11-3.06 3.71-6.24 7.3-9.45 10.9-0.721 0.824-1.44 1.65-2.18 2.5-2.38 2.69-4.81 5.32-7.25 7.94-0.75 0.86-1.5 1.72-2.27 2.61-3.45 3.61-5.67 5.78-10.7 6.33-3.32-0.2-6.34-0.496-9.54-1.38-0.33-0.66-0.66-1.32-1-2-3.61 0.656-3.61 0.656-7 2v4c-0.639 0.289-1.28 0.578-1.94 0.875-2.21 0.953-2.21 0.953-3.06 3.12 2.31 0.66 4.62 1.32 7 2v4c-1.93 0.531-3.87 1.05-5.81 1.56-1.62 0.435-1.62 0.435-3.27 0.879-2.92 0.559-2.92 0.559-5.92-0.441-0.33-1.98-0.66-3.96-1-6h-3v-3h6v-8c0.949-0.412 1.9-0.825 2.88-1.25 3.17-1.78 4.1-2.37 5.12-5.75v-4h-2v-7h2v-3c-0.66-0.33-1.32-0.66-2-1 0.99-1.98 0.99-1.98 2-4 1.65 0.33 3.3 0.66 5 1 0.99-1.98 0.99-1.98 2-4v3h2c-0.33-1.65-0.66-3.3-1-5 2.62-1.75 4.04-2.39 7-3 0.33-1.32 0.66-2.64 1-4 1.32-0.33 2.64-0.66 4-1v-2h3l-1-3c0.66-0.99 1.32-1.98 2-3h-2v-2c6.31-1 12.6-1.51 19-2 0.66-2.31 1.32-4.62 2-7h3c-0.0412-1.07-0.0825-2.14-0.125-3.25 0.17-5.11 0.17-5.11 2.12-7.75 1.02-0.402 1.02-0.402 2.06-0.812 0.639-0.392 1.28-0.784 1.94-1.19 0.819-3.56 0.819-3.56 1-7h9c-0.495-1.48-0.495-1.48-1-3 0.773-0.576 0.773-0.576 1.56-1.16 1.74-1.78 1.74-1.78 1.19-4.36-0.247-0.941-0.495-1.88-0.75-2.85-0.729-3.51-1.08-5.3-0.188-8.81 3.02-2.5 5.31-2.25 9.13-2.09 2.06 0.273 2.06 0.273 4.06 1.27-0.247-0.578-0.495-1.16-0.75-1.75-0.0825-0.743-0.165-1.48-0.25-2.25 1.31-1.36 2.65-2.69 4-4 0.691-1.99 1.36-3.99 2-6 0.49-0.407 0.98-0.815 1.48-1.23 2.33-2.71 2.29-5.46 2.7-8.95 0.159-1.27 0.317-2.54 0.48-3.86 0.11-0.976 0.219-1.95 0.332-2.96 0.639-0.124 1.28-0.247 1.94-0.375 1.02-0.309 1.02-0.309 2.06-0.625 0.33-0.66 0.66-1.32 1-2 0.669-0.282 1.34-0.565 2.03-0.855 0.976-0.567 0.976-0.567 1.97-1.14 0.59-2.02 0.59-2.02 0.562-4.31 0.259-4.03 1.15-6.31 3.44-9.69v-3h1c-0.227-0.846-0.454-1.69-0.688-2.56-0.404-4.44 0.714-6.49 2.69-10.4h2c0.33-0.66 0.66-1.32 1-2 0.0619 1.07 0.124 2.14 0.188 3.25 0.474 3.89 0.474 3.89 3.38 6.19 0.804 0.516 1.61 1.03 2.44 1.56 0.33-1.65 0.66-3.3 1-5h2c-0.495-1.48-0.495-1.48-1-3h-2c0.33-0.99 0.66-1.98 1-3 0.66-0.33 1.32-0.66 2-1-0.33-1.32-0.66-2.64-1-4 0.66-0.33 1.32-0.66 2-1 0.66 0.33 1.32 0.66 2 1 0.195-1.46 0.381-2.92 0.562-4.38 0.104-0.812 0.209-1.62 0.316-2.46 0.303-2.21 0.303-2.21-0.879-4.16h3c0.774-4.31 1.27-8.59 1.62-12.9 0.379-2.05 0.379-2.05 2.38-5.05h2c-0.33-0.99-0.66-1.98-1-3-0.22-1.73-0.405-3.46-0.562-5.19-0.0838-0.901-0.168-1.8-0.254-2.73-0.0606-0.687-0.121-1.37-0.184-2.08h-3c-0.33-0.99-0.66-1.98-1-3-0.99-0.33-1.98-0.66-3-1v-2h3c-2.95-1.16-2.95-1.16-6-1-0.33 2.31-0.66 4.62-1 7h-2c0.33-2.31 0.66-4.62 1-7-1.65 0.33-3.3 0.66-5 1 0.66 0.66 1.32 1.32 2 2h-3c-0.33 0.66-0.66 1.32-1 2-2.07-1.64-2.91-2.66-3.56-5.25 0.862-4.21 3.63-6.72 6.56-9.75 0.33 0.99 0.66 1.98 1 3 1.65-0.66 3.3-1.32 5-2-1.98-0.99-1.98-0.99-4-2 1.65-0.33 3.3-0.66 5-1v-2h2c0.33-2.31 0.66-4.62 1-7h-2v-2h-2c0.33 1.32 0.66 2.64 1 4-3.94 1.31-6.12 0.243-10-1 0.66-0.66 1.32-1.32 2-2h-3-2v-2c-3.96 0.99-3.96 0.99-8 2v-3h-2c-0.133 1.2-0.266 2.41-0.402 3.65-0.178 1.58-0.357 3.15-0.535 4.73-0.087 0.794-0.174 1.59-0.264 2.41-0.686 5.99-0.686 5.99-1.8 8.22h-2c-0.33-1.98-0.66-3.96-1-6-0.99-0.33-1.98-0.66-3-1 0.519-5.65 1.35-11.2 2.34-16.8 3.25-18.4 5.79-36.5 6.66-55.2h2v8h2v-3c0.722-0.103 1.44-0.206 2.19-0.312 3.06-0.747 5.2-1.97 7.81-3.69-0.66-0.66-1.32-1.32-2-2-0.99 0.33-1.98 0.66-3 1-0.0273-1.73-0.0465-3.46-0.0625-5.19-0.0116-0.963-0.0232-1.93-0.0352-2.92 0.0928-2.75 0.477-5.22 1.1-7.89 0.592-0.0606 1.18-0.121 1.79-0.184 4.12-0.437 8.16-0.903 12.2-1.82v-3c1.65 0.33 3.3 0.66 5 1 0.33-1.32 0.66-2.64 1-4 0.33 1.32 0.66 2.64 1 4 0-3.27-0.299-5.85-1-9-0.99 0.33-1.98 0.66-3 1-0.66-0.33-1.32-0.66-2-1v-7h2c0.66-0.66 1.32-1.32 2-2h2v-8h3c2.27-1.01 2.27-1.01 4-3 0.561-3.02 0.561-3.02 0.375-6.38-0.0129-1.12-0.0258-2.24-0.0391-3.4-0.328-3.15-0.896-5.42-2.34-8.23-0.66-0.33-1.32-0.66-2-1v-2c-0.99 0.33-1.98 0.66-3 1-0.66-0.33-1.32-0.66-2-1v-7h1c0.0544-1.58 0.093-3.17 0.125-4.75 0.0232-0.882 0.0464-1.76 0.0703-2.67-0.207-2.73-0.957-4.18-2.2-6.58v-4c-0.99-0.33-1.98-0.66-3-1-1.12-7.75-1.12-7.75 0-10-2.97 0.495-2.97 0.495-6 1v-4c-1.48-0.495-1.48-0.495-3-1v-10c-1.48 0.495-1.48 0.495-3 1 0.588-1.76 0.588-1.76 1.19-3.56 0.412-1.25 0.412-1.25 0.832-2.52 0.687-2.05 1.39-4.08 2.12-6.12 2.99-8.56 5.26-17.2 7.25-26 0.197-0.868 0.393-1.74 0.596-2.63 0.172-0.779 0.345-1.56 0.522-2.36 0.493-1.8 0.493-1.8 1.49-2.8z" fill="#8BCB05"/>
<path transform="translate(642,647)" d="m0 0h6c0.33 2.31 0.66 4.62 1 7h5c0.33 0.99 0.66 1.98 1 3-2.75 2.96-5.42 5.12-9 7h-2c0.125 1.04 0.25 2.08 0.379 3.15-0.379 3.85-0.379 3.85-2.91 6.7-1.16 0.945-2.34 1.87-3.53 2.77-1.29 1.04-2.58 2.08-3.86 3.12-0.671 0.532-1.34 1.06-2.03 1.61-14.4 11.5-27 23.9-38 38.6-0.45 0.589-0.9 1.18-1.36 1.79-33 43.2-50.5 92.5-59.1 146-0.353 2.19-0.72 4.37-1.1 6.55-1.67 9.88-2.1 19.7-2.55 29.7-0.104 2.25-0.218 4.5-0.333 6.74-0.0272 0.682-0.0543 1.36-0.0823 2.07-0.186 3.56-0.572 6.26-2.48 9.3-4.59-10.4-4.59-10.4-4-16h-1c-0.675-3.71-1.34-7.42-2-11.1-0.286-1.57-0.286-1.57-0.578-3.17-0.18-1.02-0.361-2.04-0.547-3.09-0.168-0.932-0.335-1.86-0.508-2.82-0.367-2.79-0.367-2.79-0.359-6.08 0.311-2.63 0.311-2.63-1.01-3.71-9.62-47.2-5.03-102 8-148 0.33 0.99 0.66 1.98 1 3h2c0.33 2.97 0.66 5.94 1 9 1.49-0.495 1.49-0.495 3-1 2.05 0.165 4.03 0.506 6.06 0.844 2.16 0.301 2.16 0.301 4.94-0.844 1.03-2.33 1.03-2.33 1.69-5.06 0.377-1.38 0.377-1.38 0.762-2.79 0.182-0.71 0.364-1.42 0.551-2.15-0.99-0.495-0.99-0.495-2-1 0.99-0.495 0.99-0.495 2-1v-2h-2c-1.24-7.15-0.859-12.3 2-19l2 1c0.33-1.98 0.66-3.96 1-6 1.6-0.337 3.21-0.669 4.81-1 1.34-0.278 1.34-0.278 2.71-0.562 4.11-0.725 8.31-0.438 12.5-0.438-2 3-2 3-3 4 2.31 0.33 4.62 0.66 7 1-0.99-0.33-1.98-0.66-3-1v-4c0.99-0.66 1.98-1.32 3-2v-2c0.99 0.33 1.98 0.66 3 1v-2h-2c-0.495-1.98-0.495-1.98-1-4h2v2c0.831-0.144 1.66-0.289 2.52-0.438 1.09-0.186 2.17-0.371 3.29-0.562 1.08-0.186 2.16-0.371 3.27-0.562 2.92-0.438 2.92-0.438 5.92-0.438 0.402-1.08 0.402-1.08 0.812-2.19 1.19-2.81 1.19-2.81 2.75-5.19 1.74-3.19 1.96-6.05 2.44-9.62 2-1 2-1 4.31-0.75 2.9-0.0332 2.9-0.0332 5.44-2.31 2.61-3.41 3-5.7 3.25-9.94 0.557 0.309 1.11 0.619 1.69 0.938 2.47 1.13 4.62 1.71 7.31 2.06 0.66-0.33 1.32-0.66 2-1-0.495-1.49-0.495-1.49-1-3 3.75-3 3.75-3 6-3v-4c9.88-2.4 9.88-2.4 14.1-0.875 2 2 2.59 3.09 2.88 5.88h-3v3c3.37-2.27 3.37-2.27 5-6h-2v-2h2v-3h-2v-2zm-120 252 1 2zm2 10 1 3z" fill="#8BC704"/>
<path transform="translate(860,640)" d="m0 0c0.124 0.639 0.247 1.28 0.375 1.94 0.206 0.681 0.413 1.36 0.625 2.06l2 1c-0.33 1.32-0.66 2.64-1 4 0.928-0.278 0.928-0.278 1.88-0.562 2.12-0.438 2.12-0.438 4.12 0.562 0.576 4.89-1.1 7.15-4 11-2.1 2.08-4.34 3.94-6.62 5.81-1.26 1.05-2.52 2.11-3.78 3.16-0.615 0.513-1.23 1.03-1.86 1.56-2.36 2-4.64 4.07-6.92 6.16-4.24 3.85-8.64 7.45-13.1 11.1-3.57 2.95-6.99 6.04-10.4 9.15-2.04 1.85-4.11 3.64-6.2 5.42-3.53 3.08-6.87 6.32-10.2 9.62-0.483 0.478-0.965 0.956-1.46 1.45-3.37 3.39-6.53 6.93-9.66 10.5-3.63 4.12-7.44 8.08-11.2 12.1-13.1 13.9-25.2 28.6-36.2 44.1-1.38 1.94-2.78 3.88-4.18 5.81-11.3 15.7-22.6 31.7-31.2 49.1-2.85 0.188-2.85 0.188-6 0-2.38-3-2.38-3-4-6-1.89 2.39-3.02 4.07-4 7-1.74 2.35-2.57 2.93-5.5 3.38-2.98-0.447-3.67-1.03-5.5-3.38-0.907-5.12-0.124-10.3 2-15 0.66-0.33 1.32-0.66 2-1v-12c0.99-0.33 1.98-0.66 3-1v-2c5.93-2.47 5.93-2.47 9-3 0.66 0.33 1.32 0.66 2 1 0.049-0.941 0.098-1.88 0.148-2.85 0.0748-1.25 0.15-2.49 0.227-3.77 0.0696-1.23 0.139-2.46 0.211-3.73 0.4-3.52 1.04-6.39 2.41-9.65 4-3 4-3 7-3-0.165-1.09-0.33-2.19-0.5-3.31-0.5-3.69-0.5-3.69-0.5-6.69 3.01-0.934 3.87-1.04 7 0-0.124-0.743-0.247-1.48-0.375-2.25 0.375-2.75 0.375-2.75 3.19-5 3.19-1.75 3.19-1.75 6.19-2.75 0.733-2.02 0.733-2.02 1-4 1.64-0.402 1.64-0.402 3.31-0.812 3.63-1.17 4.24-1.64 6.69-4.19 1.73-0.588 1.73-0.588 3.5-1.19 3.75-1.94 4.07-2.29 5.44-6 0.351-1.26 0.701-2.52 1.06-3.81 0.33 1.32 0.66 2.64 1 4 1.96-3.67 3.39-6.87 4-11 1.65-0.33 3.3-0.66 5-1v-3c1.98 0.495 1.98 0.495 4 1 0.103-0.598 0.206-1.2 0.312-1.81 0.688-2.19 0.688-2.19 2.2-3.54 2.33-2.59 1.9-5.23 1.98-8.59 0.166-0.679 0.333-1.36 0.504-2.06 1.96-1.15 1.96-1.15 4-2 0.392-0.681 0.784-1.36 1.19-2.06 2.92-3.13 6.7-2.77 10.8-2.94-0.261-0.905-0.261-0.905-0.527-1.83-0.578-2.65-0.125-4.56 0.527-7.17 0.598 0.186 1.2 0.371 1.81 0.562 2.35 0.658 2.35 0.658 5.19-0.562 1.49 0.495 1.49 0.495 3 1-0.33 2.31-0.66 4.62-1 7 0.186-1.14 0.186-1.14 0.375-2.31 0.625-2.69 0.625-2.69 2.62-5.69 1.07 3.2 1.07 5.66 1 9h2c0.413-0.413 0.825-0.825 1.25-1.25 1.75-1.75 1.75-1.75 4.88-3.69 2.99-1.75 2.99-1.75 3.75-4.31 0.0412-0.577 0.0825-1.15 0.125-1.75 1.32-0.33 2.64-0.66 4-1 0.0206-1.05 0.0412-2.1 0.0625-3.19 1.13-4.59 2.45-5.5 6.25-7.96 1.69-0.848 1.69-0.848 3.69-0.848v-2h2v-2c0.99 0.33 1.98 0.66 3 1 0.433-0.474 0.866-0.949 1.31-1.44 1.69-1.56 1.69-1.56 4.69-2.56 0.186-0.957 0.186-0.957 0.375-1.93 0.206-0.682 0.413-1.36 0.625-2.07 2.25-1.16 2.25-1.16 5-2.06 2.7-0.839 2.7-0.839 5-1.94 0.33-0.99 0.66-1.98 1-3h4c0.33-0.99 0.66-1.98 1-3-0.495-0.454-0.99-0.908-1.5-1.38-1.5-1.62-1.5-1.62-1.5-3.62-0.99 0.33-1.98 0.66-3 1-0.66-0.33-1.32-0.66-2-1-0.33 2.64-0.66 5.28-1 8-3.3-0.33-6.6-0.66-10-1-0.604-4.08-1-7.89-1-12 0.99-0.33 1.98-0.66 3-1 0.33-1.65 0.66-3.3 1-5 0.99 0.99 0.99 0.99 2 2-0.33 0.99-0.66 1.98-1 3h3c-0.33-0.99-0.66-1.98-1-3 0.276-2.01 0.602-4.01 1-6 0.771-0.0606 1.54-0.121 2.34-0.184 1.5-0.126 1.5-0.126 3.04-0.254 0.998-0.0812 2-0.162 3.02-0.246 10.9-1.33 10.9-1.33 11.6-1.32z" fill="#8CC704"/>
<path transform="translate(1062,653)" d="m0 0h1c0.124 1.11 0.247 2.23 0.375 3.38 0.272 3.66 0.272 3.66 2.62 5.62 0.125 2.62 0.125 2.62 0 5-1.65 0.33-3.3 0.66-5 1 1.25 3.65 1.67 4.78 5 7 0.293 2.16 0.293 2.16 0.188 4.62-0.0406 1.23-0.0406 1.23-0.082 2.48-0.0348 0.626-0.0696 1.25-0.105 1.9-1.32-0.33-2.64-0.66-4-1 0.99 1.98 0.99 1.98 2 4h1v8h-2c0.428 0.923 0.856 1.85 1.3 2.8 1.61 5.72-1.54 10.4-4.05 15.5-0.509 1.06-1.02 2.12-1.54 3.21-1.54 3.19-3.12 6.37-4.71 9.54-0.435 0.879-0.87 1.76-1.32 2.66-10.8 21.7-24.2 41.7-39.7 60.3-0.822 1.01-1.64 2.02-2.49 3.05-3.08 3.73-6.29 7.34-9.51 10.9-0.722 0.825-1.44 1.65-2.19 2.5-2.38 2.69-4.8 5.31-7.25 7.94-0.75 0.86-1.5 1.72-2.27 2.61-3.45 3.61-5.67 5.78-10.7 6.33-3.32-0.2-6.34-0.496-9.54-1.38l-1-2c-3.61 0.656-3.61 0.656-7 2v4c-0.639 0.289-1.28 0.578-1.94 0.875-2.21 0.953-2.21 0.953-3.06 3.12 2.31 0.66 4.62 1.32 7 2v4c-1.93 0.531-3.87 1.05-5.81 1.56-1.62 0.435-1.62 0.435-3.27 0.879-2.92 0.559-2.92 0.559-5.92-0.441-0.33-1.98-0.66-3.96-1-6h-3v-3h6v-8c1.42-0.619 1.42-0.619 2.88-1.25 3.17-1.78 4.1-2.37 5.12-5.75v-4h-2v-7h2v-3c-0.66-0.33-1.32-0.66-2-1l2-4c1.65 0.33 3.3 0.66 5 1l2-4v3h2c-0.33-1.65-0.66-3.3-1-5 2.62-1.75 4.04-2.39 7-3 0.33-1.32 0.66-2.64 1-4 1.32-0.33 2.64-0.66 4-1v-2h3c-0.33-0.99-0.66-1.98-1-3 0.99-1.49 0.99-1.49 2-3h-2v-2c6.31-1 12.6-1.51 19-2 0.66-2.31 1.32-4.62 2-7h3c-0.0412-1.07-0.0825-2.14-0.125-3.25 0.17-5.11 0.17-5.11 2.12-7.75 1.02-0.402 1.02-0.402 2.06-0.812 0.959-0.588 0.959-0.588 1.94-1.19 0.819-3.56 0.819-3.56 1-7h9c-0.33-0.99-0.66-1.98-1-3 0.516-0.384 1.03-0.768 1.56-1.16 1.74-1.78 1.74-1.78 1.19-4.36-0.371-1.41-0.371-1.41-0.75-2.85-0.729-3.51-1.08-5.3-0.188-8.81 3.02-2.5 5.31-2.25 9.13-2.09 2.06 0.273 2.06 0.273 4.06 1.27-0.247-0.577-0.495-1.15-0.75-1.75-0.0825-0.743-0.165-1.49-0.25-2.25 1.31-1.36 2.65-2.69 4-4 0.691-1.99 1.36-3.99 2-6 0.49-0.407 0.98-0.815 1.48-1.23 2.33-2.71 2.29-5.46 2.7-8.95 0.159-1.27 0.317-2.54 0.48-3.86 0.164-1.46 0.164-1.46 0.332-2.96 0.639-0.124 1.28-0.247 1.94-0.375 0.681-0.206 1.36-0.413 2.06-0.625 0.495-0.99 0.495-0.99 1-2 0.669-0.282 1.34-0.565 2.03-0.855 0.651-0.378 1.3-0.755 1.97-1.14 0.59-2.02 0.59-2.02 0.562-4.31 0.259-4.03 1.15-6.31 3.44-9.69v-3h1c-0.227-0.846-0.454-1.69-0.688-2.56-0.404-4.44 0.714-6.49 2.69-10.4h2v-2z" fill="#8CC704"/>
<path transform="translate(907,860)" d="m0 0h5c0.66 1.32 1.32 2.64 2 4h-5c-0.33 0.66-0.66 1.32-1 2-1.98-0.495-1.98-0.495-4-1v3c-3.78 3.08-6.15 4.37-11 4-1.67 0.297-3.34 0.621-5 1v5h6c-9.49 11-31.9 15.3-45 20-0.824 0.298-1.65 0.596-2.5 0.903-51.5 18.5-107 25.7-162 29.1-1.98 0.132-3.95 0.265-5.93 0.398-9.56 0.601-19.1 0.722-28.7 0.789-1.19 0.0131-2.39 0.0263-3.62 0.0398-1.11 0.00105-2.22 0.00209-3.36 0.00317-1.49 0.00616-1.49 0.00616-3.01 0.0125-2.39-0.243-2.39-0.243-4.39-2.24 0.495-1.49 0.495-1.49 1-3 6.93-0.99 6.93-0.99 14-2h-33v-3c1.42-0.0272 2.83-0.0465 4.25-0.0625 0.789-0.0116 1.58-0.0232 2.39-0.0352 2.27 0.0938 4.19 0.465 6.36 1.1-0.165-0.784-0.33-1.57-0.5-2.38-0.508-2.67-0.5-4.91-0.5-7.62 5.33-1.7 10.4-2.52 16-3 0.33-0.99 0.66-1.98 1-3 1.26-0.0412 2.52-0.0825 3.81-0.125 0.708-0.0232 1.42-0.0464 2.14-0.0703 2.04 0.195 2.04 0.195 5.04 2.2 1.19 2.12 1.19 2.12 2 4-0.99 0.33-1.98 0.66-3 1 0.33 0.66 0.66 1.32 1 2 2.14-0.237 4.27-0.477 6.41-0.727 1.7-0.18 3.41-0.322 5.12-0.422 0.794-0.0541 1.59-0.108 2.41-0.164 1.1-0.0561 1.1-0.0561 2.21-0.113 2.06-0.418 2.06-0.418 3.1-2.62 0.246-0.646 0.492-1.29 0.746-1.96v6c2.16-2.03 2.16-2.03 4-5 1.65 0.33 3.3 0.66 5 1v-3c4 0 4 0 6.31 1.06 4.43 1.54 8.34 0.385 12.7-1.06 0.235 0.624 0.469 1.25 0.711 1.89 1.66 2.71 2.9 3 5.91 3.86 0.817 0.242 1.63 0.485 2.48 0.734 0.626 0.17 1.25 0.34 1.9 0.516 0.0619-0.784 0.124-1.57 0.188-2.38 0.812-2.62 0.812-2.62 3.25-4 2.56-0.625 2.56-0.625 4.56 0.375 0.495-0.99 0.495-0.99 1-2 0.66 0.33 1.32 0.66 2 1v-2h4c0.495-0.99 0.495-0.99 1-2 1.48 0.99 1.48 0.99 3 2 0.188 2.62 0.188 2.62 0 5 1.66 0.382 3.32 0.714 5 1 1.64-1.64 1.6-3.78 2-6 2.79-1.03 3.87-1.05 6.75-0.0625 0.743 0.351 1.48 0.701 2.25 1.06-0.33 0.99-0.66 1.98-1 3 0.578-0.474 1.15-0.949 1.75-1.44 3.52-2.44 7.04-2.72 11.2-3.12 0.846-0.0838 1.69-0.168 2.56-0.254 2.14-0.161 4.29-0.184 6.44-0.184 0.33-0.66 0.66-1.32 1-2h8v-2c1.36 0.278 1.36 0.278 2.75 0.562 5.42 0.805 10.8 0.0157 16.2-0.562v2c2.09-0.371 4.17-0.773 6.25-1.19 1.16-0.22 2.32-0.441 3.52-0.668 3.83-1.36 4.88-2.91 7.23-6.14 3.16-2.16 5.78-2.24 9.56-2.19 0.95 0.00645 1.9 0.0129 2.88 0.0195 2.56 0.168 2.56 0.168 5.56 1.17 1.34-0.303 2.67-0.638 4-1h4c0.186-1.18 0.186-1.18 0.375-2.38 0.625-2.62 0.625-2.62 2.62-4.62 2.5-0.379 2.5-0.379 5.44-0.562 3.14-0.205 5.56-0.437 8.56-1.44l-2-2c0.949-0.0825 1.9-0.165 2.88-0.25 1.03-0.247 2.06-0.495 3.12-0.75 0.33-0.66 0.66-1.32 1-2 0.33-0.66 0.66-1.32 1-2 3.12-0.75 3.12-0.75 6-1v-2h7c1.49-3.96 1.49-3.96 3-8h7c0.33-0.99 0.66-1.98 1-3 0.531 0.338 1.06 0.675 1.61 1.02 3.11 1.27 5.32 0.963 8.64 0.602 1.08-0.111 2.16-0.222 3.27-0.336 0.82-0.0954 1.64-0.191 2.48-0.289v-2z" fill="#8CCB05"/>
<path transform="translate(975,583)" d="m0 0c-8 4-8 4-9.95 4.88-2.16 1.1-2.16 1.1-4.27 2.91-3.56 2.83-7.35 5.14-11.2 7.52-25.7 16.1-50.4 33.9-74.1 52.7-0.798 0.633-1.6 1.27-2.42 1.92-0.711 0.569-1.42 1.14-2.15 1.73-1.91 1.36-1.91 1.36-4.91 2.36 0.66-2.64 1.32-5.28 2-8h-6c-0.33-0.99-0.66-1.98-1-3-0.351-0.639-0.701-1.28-1.06-1.94-0.938-2.06-0.938-2.06-0.938-6.06 1.65-0.33 3.3-0.66 5-1-0.33-0.99-0.66-1.98-1-3 1.49-0.495 1.49-0.495 3-1-1.95-1.95-3.53-2.85-6-4v-2c-4.07-0.264-6.65 0.492-10.3 2.25-0.964 0.459-1.93 0.918-2.92 1.39-0.913 0.449-1.83 0.897-2.77 1.36-0.706 0.345-1.41 0.691-2.14 1.05-1.29 0.642-2.59 1.29-3.88 1.95-1.34 0.68-2.68 1.35-4.03 2.02-24.1 11.9-47.8 24.8-69.7 40.4-1.69 1.19-3.4 2.35-5.12 3.48-3.47 2.33-6.85 4.77-10.2 7.25-0.653 0.481-1.31 0.962-1.98 1.46-13.3 9.8-26 20.1-38.3 31-1.35 1.17-2.77 2.27-4.19 3.34-2.12 1.8-3.75 3.53-5.54 5.64-4.02 4.64-8.33 8.93-12.7 13.2-1.51 1.48-3.02 2.97-4.52 4.46-0.657 0.646-1.31 1.29-1.99 1.96-1.86 1.87-1.86 1.87-3.68 4.77h-2c-0.356 0.833-0.356 0.833-0.719 1.68-1.58 2.86-3.56 4.99-5.78 7.38-2.41 2.6-4.53 4.99-6.5 7.94h-2c-0.211 0.664-0.423 1.33-0.641 2.01-1.84 4.04-4.41 7.3-7.11 10.8-0.513 0.674-1.03 1.35-1.55 2.04-2.11 2.78-4.24 5.55-6.36 8.32-0.532 0.7-1.06 1.4-1.61 2.12-0.718 0.942-0.718 0.942-1.45 1.9-1.74 2.46-3.04 5.06-4.28 7.8h-2c-0.103 0.557-0.206 1.11-0.312 1.69-0.827 2.78-2.17 4.83-3.69 7.31-9.85 17-19.4 34.1-26.8 52.4-1.23 2.6-1.23 2.6-3.23 3.6 0.664-5.17 2.91-9.62 5.06-14.3 0.605-1.33 0.605-1.33 1.22-2.68 16.7-36.5 38.3-71.1 66.1-100 2.29-2.4 4.49-4.84 6.64-7.36 5.13-5.91 10.7-11.4 16.3-16.9 1.92-1.93 3.84-3.86 5.75-5.79 7-7.04 14.1-13.6 21.9-19.7 1.27-1.02 2.53-2.05 3.79-3.08 3.72-3 7.46-5.97 11.2-8.92 0.593-0.467 1.19-0.935 1.8-1.42 19.2-15.1 40-28.4 61.2-40.6 0.718-0.416 1.44-0.832 2.18-1.26 30.9-17.8 63.6-31.8 96.8-44.7 0.932-0.367 1.86-0.734 2.83-1.11 13.1-5.13 26.5-9.21 40-13.3 0.882-0.265 1.76-0.531 2.67-0.804 2.55-0.765 5.11-1.52 7.66-2.28 0.759-0.227 1.52-0.453 2.3-0.687 3.77-1.11 7.55-2.14 11.4-3.07 0.709-0.174 1.42-0.349 2.15-0.528 2.28-0.279 3.87 0.0625 6.05 0.749z" fill="#8CC704"/>
<path transform="translate(1073,796)" d="m0 0c0.33 0.66 0.66 1.32 1 2-2.36 6.4-6.24 12-10.2 17.5-2.3 3.2-4.41 6.52-6.51 9.86-0.416 0.534-0.833 1.07-1.26 1.62h-2c-0.34 1.05-0.34 1.05-0.688 2.12-1.63 3.57-3.74 5.91-6.31 8.88-0.33 0.66-0.66 1.32-1 2h-2c-0.268 0.804-0.536 1.61-0.812 2.44-0.392 0.846-0.784 1.69-1.19 2.56-1.49 0.495-1.49 0.495-3 1-0.672 1.33-1.34 2.66-2 4-1.8 2.14-3.6 4.2-5.5 6.25-0.499 0.554-0.998 1.11-1.51 1.68-1.29 1.4-2.63 2.74-3.99 4.07h-2c-0.232 0.568-0.464 1.14-0.703 1.72-1.62 2.84-3.59 4.56-6.05 6.71-0.9 0.79-1.8 1.58-2.73 2.39-2.82 2.42-5.66 4.8-8.52 7.17-1.36 1.18-2.71 2.37-4.06 3.56-8.49 7.44-8.49 7.44-10.9 7.44-0.33 0.99-0.66 1.98-1 3-1.97 1.43-3.94 2.71-6 4-1.46 0.976-2.92 1.96-4.38 2.94-4.16 2.77-8.36 5.45-12.6 8.06-0.771 0.473-1.54 0.946-2.34 1.43-16.3 9.88-33.3 19-51.5 24.8-2.38 0.803-4.69 1.73-7.01 2.68-8.33 3.38-16.8 6.05-25.5 8.34-2.59 0.703-5.15 1.48-7.71 2.28-9.41 2.85-19.1 4.19-28.8 5.16-2.1 0.279-4.06 0.756-6.11 1.28-4.09 0.614-7.99 1.06-12.1 1-3.7-0.116-3.7-0.116-6.57 0.492-4.08 0.626-8.02 0.652-12.1 0.641-1.25 0.00144-1.25 0.00144-2.52 0.0029-1.74 6.77e-4 -3.49-0.00115-5.23-0.00534-2.68-0.00538-5.35-2.65e-5 -8.03 0.00635-1.7-6.6e-4 -3.4-0.00194-5.09-0.00391-1.2 0.00304-1.2 0.00304-2.43 0.00613-5.64-0.024-5.64-0.024-7.87-1.14-1.16 0.0206-2.31 0.0412-3.5 0.0625-5.91 0.0862-11.5-1.37-17.2-2.69-0.746-0.122-1.49-0.245-2.26-0.371l-1 1c-5.71 1.5-11.1 2.11-17 2-0.928 0.165-1.86 0.33-2.81 0.5-3.75 0.588-7.33 0.528-11.1 0.438-2.07-0.175-2.07-0.175-3.07 1.06-2.31 0.21-4.62 0.368-6.94 0.5-4.7 0.106-4.7 0.106-9.06 1.5-3.54 0.071-7.07-0.00333-10.6-0.0625-3.15-0.0809-3.15-0.0809-5.21 0.562-2.84 0.653-5.49 0.593-8.4 0.562-1.2-0.00773-2.39-0.0155-3.62-0.0234-1.87-0.0193-1.87-0.0193-3.77-0.0391-2.47-0.0254-4.94-0.0465-7.41-0.0625-1.64-0.0174-1.64-0.0174-3.32-0.0352-2.62-0.0856-2.62-0.0856-4.64 1.1-16.6 1.14-16.6 1.14-23-4v-2c1.43-0.0219 1.43-0.0219 2.9-0.0442 37.4-0.609 75.8-1.58 113-7.57 3.96-0.479 7.7-0.302 11.7-0.0156 0.712 0.0438 1.42 0.0877 2.16 0.133 3.38 0.221 6.69 0.532 10 0.999 4.78 0.604 9.52 0.69 14.3 0.731 0.948 0.00966 1.9 0.0193 2.87 0.0293 3.07 0.0248 6.14 0.0374 9.22 0.045 1.05 0.00295 2.1 0.0059 3.18 0.00894 16.9 0.0108 33-1.04 49.7-3.82 2.74-0.446 5.47-0.82 8.22-1.15 65.4-8.22 131-48.6 175-96.3 0.33-0.66 0.66-1.32 1-2h2c0.231-0.544 0.461-1.09 0.699-1.65 1.66-3.01 3.85-5.42 6.11-7.98 11.1-12.8 20.4-26.9 29.2-41.4z" fill="#000001"/>
<path transform="translate(933,779)" d="m0 0c-1.65 0.66-3.3 1.32-5 2h10v6c-3.47 1.16-6.36 1.07-10 1-0.33 0.66-0.66 1.32-1 2l2 2h-3l1 2c0.588-0.742 0.588-0.742 1.19-1.5 2.36-1.96 3.83-1.74 6.81-1.5-0.75 6.62-0.75 6.62-3 10h-4c2.76 2.76 5.21 2.58 9 3-0.619 0.722-1.24 1.44-1.88 2.19-1.97 2.61-2.98 4.78-4.12 7.81-0.66 0.66-1.32 1.32-2 2-0.46 2.2-0.46 2.2-0.625 4.62-0.186 2.17-0.186 2.17-0.375 4.38-3.96 0.99-7.92 1.98-12 3 0.0412 1.26 0.0825 2.52 0.125 3.81 0.114 3.48-0.0657 4.1-2.12 7.19h-2v2h-4v2c0.99 0.495 0.99 0.495 2 1-4.75-0.875-4.75-0.875-7-2-0.633-2.5-0.633-2.5-1.12-5.56-0.168-1.01-0.335-2.02-0.508-3.07-0.121-0.782-0.242-1.56-0.367-2.37v8c-1.65-0.66-3.3-1.32-5-2v4h-2c-0.33 0.99-0.66 1.98-1 3h-3v2h-3c-0.99-3.47-0.99-3.47-2-7l-2 2c-0.66-0.33-1.32-0.66-2-1-0.414-2.72-0.414-2.72-0.625-6.06-0.0748-1.1-0.15-2.21-0.227-3.35-0.049-0.855-0.098-1.71-0.148-2.59-0.91 4.1-0.91 4.1-0.375 8.19 0.124 0.598 0.247 1.2 0.375 1.81-1.44 1.75-1.44 1.75-3 3-1.15-3.46-1.17-6.23-1.19-9.88-0.0142-1.21-0.0284-2.43-0.043-3.68 0.222-3.32 0.692-5.52 2.23-8.45l2-1c0.722-1.64 1.39-3.31 2-5 1.42-0.0545 2.83-0.093 4.25-0.125 0.789-0.0232 1.58-0.0464 2.39-0.0703 2.58 0.214 4.09 1.01 6.36 2.2 2.66-0.149 2.66-0.149 5-1 0.33-0.66 0.66-1.32 1-2-1.49-0.495-1.49-0.495-3-1 1.49-0.495 1.49-0.495 3-1v-2c-1.32 0.33-2.64 0.66-4 1 0.33-0.99 0.66-1.98 1-3 1.65-0.33 3.3-0.66 5-1 1.02-2.82 1.02-2.82 1.38-5.12 0.206-0.619 0.413-1.24 0.625-1.88 0.99-0.33 1.98-0.66 3-1v2c3.92-2.79 3.92-2.79 6-7 0.99 0.33 1.98 0.66 3 1l3-3c-0.99-0.33-1.98-0.66-3-1v-2c0.928-0.124 0.928-0.124 1.88-0.25 2.31-0.563 2.31-0.563 3.38-2.81 0.247-0.639 0.495-1.28 0.75-1.94h2v-2c3.07-1.86 4.6-2.22 8-1z" fill="#8CCB05"/>
<path transform="translate(631,822)" d="m0 0c0.66 0.99 1.32 1.98 2 3h2c-0.875 7.88-0.875 7.88-2 9-0.231 1.35-0.412 2.7-0.562 4.06-0.144 1.3-0.289 2.6-0.438 3.94h-1v-5h-4c-0.33 1.65-0.66 3.3-1 5h-2c0.0206 0.969 0.0412 1.94 0.0625 2.94-0.0625 3.06-0.0625 3.06-1.06 4.06 1.32 0.66 2.64 1.32 4 2h-2c-0.33 1.32-0.66 2.64-1 4 1.49 0.495 1.49 0.495 3 1h-2c-0.33 1.65-0.66 3.3-1 5 2.97-0.495 2.97-0.495 6-1-0.0825-0.887-0.165-1.77-0.25-2.69 0.307-4.06 1.45-5.43 4.25-8.31 0.99-0.66 1.98-1.32 3-2v-4h-2v-10c0.99 0.33 1.98 0.66 3 1v2c0.66-0.33 1.32-0.66 2-1-0.495-1.49-0.495-1.49-1-3h-2v-2h2c0.33-1.65 0.66-3.3 1-5 3.33-1.11 5.62-0.845 9 0v2h2v-2c0.99 0.33 1.98 0.66 3 1v2h-2c0.495 2.97 0.495 2.97 1 6 0.66-0.33 1.32-0.66 2-1 0.465-1.9 0.465-1.9 0.625-4.06 0.186-1.95 0.186-1.95 0.375-3.94 0.495 0.99 0.495 0.99 1 2 0.99-0.33 1.98-0.66 3-1 1.56 1.81 1.56 1.81 3 4-0.33 0.99-0.66 1.98-1 3l-2-2v4h-2v3c1.32 0.33 2.64 0.66 4 1h-2c0.495 1.49 0.495 1.49 1 3v2c0.351 0.969 0.701 1.94 1.06 2.94 1.3 4.3 0.712 8.21 0.129 12.6-0.362 2.59-0.362 2.59 0.809 5.45h3c-0.33 1.32-0.66 2.64-1 4h-2c-0.33 0.99-0.66 1.98-1 3-2.5-1.38-2.5-1.38-5-3v-2h-2v-3c-0.727 0.289-1.45 0.577-2.2 0.875-7.5 2.77-13.8 3.63-21.8 3.12 0.309 1.14 0.309 1.14 0.625 2.31 0.375 2.69 0.375 2.69-1.62 5.69v-3c-1.98 0.495-1.98 0.495-4 1v-5c-0.619-0.144-1.24-0.289-1.88-0.438-2.12-0.562-2.12-0.562-4.12-1.56v2c0.66 0.33 1.32 0.66 2 1-1.49 0.495-1.49 0.495-3 1v-4c-2.8 2.07-3.03 3.14-3.69 6.69-0.155 1.64-0.155 1.64-0.312 3.31-2.48 0.495-2.48 0.495-5 1v5c-0.99-0.33-1.98-0.66-3-1 0.33-0.99 0.66-1.98 1-3l-2 1v3c-1.32-0.33-2.64-0.66-4-1 0.591-2.61 1.2-5.21 1.81-7.81 0.248-1.11 0.248-1.11 0.502-2.24 0.929-3.87 1.65-6.35 4.69-8.95 1.06-2.16 1.06-2.16 1.94-4.5 1.51-3.58 2.7-5.41 6.06-7.5 1.15-2.82 1.15-2.82 0.875-5.19 0.176-3.95 1.04-7.42 3.12-10.8 3.19-1.5 3.19-1.5 6-2 0.0823-3.04-0.0239-5.07-1-8 1.65-0.99 3.3-1.98 5-3z" fill="#8CCB05"/>
<path transform="translate(597,876)" d="m0 0c0.938 3.33 0.908 5.37 0.0625 8.75-0.195 0.799-0.389 1.6-0.59 2.42-0.156 0.603-0.312 1.21-0.473 1.83h1c-0.33 3.96-0.66 7.92-1 12h-2c0.33 1.98 0.66 3.96 1 6h4v-3h2c0.33-0.66 0.66-1.32 1-2v2h2v-5c0.99-0.33 1.98-0.66 3-1 0.33-0.99 0.66-1.98 1-3 9.41-1.33 9.41-1.33 14 0 0.879 3.73 1.09 7.17 1 11 3.3-0.33 6.6-0.66 10-1v-6c0.99-0.33 1.98-0.66 3-1 0.33-0.66 0.66-1.32 1-2 3-2 3-2 7-2 0.33-0.66 0.66-1.32 1-2 2.97 0.99 2.97 0.99 6 2v2c1.32-0.66 2.64-1.32 4-2v2h2v2c-2.31 0.66-4.62 1.32-7 2 0.99 0.66 1.98 1.32 3 2h-4v2h-2c-0.33 1.32-0.66 2.64-1 4-0.853 0.0909-0.853 0.0909-1.72 0.184-4.78 0.518-9.53 1.11-14.3 1.82 0.351 0.722 0.701 1.44 1.06 2.19 0.938 2.81 0.938 2.81-0.0625 7.81h-13c3.9 0.975 6.95 1.11 11 1.1 0.99-0.00212 0.99-0.00212 2-0.00429 2.1-0.00558 4.2-0.0181 6.3-0.0309 1.43-0.00502 2.85-0.00958 4.28-0.0137 3.49-0.011 6.98-0.0282 10.5-0.0488l-1 2c-2.94 0.633-2.94 0.633-6.56 1.12-1.8 0.251-1.8 0.251-3.63 0.508-0.927 0.121-1.85 0.242-2.81 0.367v3 1c-5.14 0.0251-10.3 0.043-15.4 0.0549-1.74 0.00497-3.48 0.0117-5.22 0.0205-10.8 0.0531-21.6-0.169-32.4-1.08-0.737-3.7-1.16-6.62-0.285-10.3 0.188-0.801 0.376-1.6 0.57-2.43 0.216-0.853 0.431-1.71 0.653-2.58 0.219-0.895 0.437-1.79 0.663-2.71 2.9-11.5 6.65-22.7 10.4-34z" fill="#88C203"/>
<path transform="translate(1064,528)" d="m0 0c5.88 0.875 5.88 0.875 7 2 0.0723 1.85 0.0838 3.71 0.0625 5.56-0.00902 1.01-0.018 2.02-0.0273 3.07-0.0116 0.782-0.0232 1.56-0.0352 2.37 1.98 0.66 3.96 1.32 6 2v-2c4.63-0.323 7.34 0.0518 11 3 1.85 3.69 2.26 6.72 2.27 10.8 0.00387 1.67 0.00387 1.67 0.00781 3.37-0.00773 1.15-0.0155 2.31-0.0234 3.49 0.0116 1.7 0.0116 1.7 0.0234 3.44-0.0317 13.7-0.0317 13.7-2.27 19.9-2.62 1.62-2.62 1.62-5 2-0.0735 0.94-0.0735 0.94-0.148 1.9-0.0748 0.817-0.15 1.63-0.227 2.48-0.0696 0.812-0.139 1.62-0.211 2.46-0.414 2.16-0.414 2.16-2.41 4.16-4.88-1.88-4.88-1.88-6-3-0.506 1.27-1 2.54-1.5 3.81-0.278 0.708-0.557 1.42-0.844 2.14-0.809 2.16-0.809 2.16-0.656 5.04h-2c0.33-2.31 0.66-4.62 1-7-2.47 0.495-2.47 0.495-5 1 0.66 0.66 1.32 1.32 2 2h-3c-0.495 0.99-0.495 0.99-1 2-2.07-1.64-2.91-2.66-3.56-5.25 0.862-4.21 3.63-6.72 6.56-9.75 0.33 0.99 0.66 1.98 1 3 1.65-0.66 3.3-1.32 5-2-1.32-0.66-2.64-1.32-4-2 2.47-0.495 2.47-0.495 5-1v-2h2c0.33-2.31 0.66-4.62 1-7h-2v-2h-2c0.33 1.32 0.66 2.64 1 4-3.94 1.31-6.12 0.243-10-1 0.66-0.66 1.32-1.32 2-2h-3-2v-2c-1.98 0.495-1.98 0.495-4 1v-2h-2v-2h2c0.33-0.99 0.66-1.98 1-3 1.65 0.33 3.3 0.66 5 1v-2h3c-0.33-0.66-0.66-1.32-1-2-0.07-1.71-0.0844-3.42-0.0625-5.12 0.00902-0.91 0.018-1.82 0.0273-2.76 0.0116-0.699 0.0232-1.4 0.0352-2.12h6v-6c-1.42 0.247-1.42 0.247-2.88 0.5-3.53 0.565-5.72 0.409-9.12-0.5-1.07 3.2-1.07 5.66-1 9-0.99 0.33-1.98 0.66-3 1v-9h2v-3c0.495-0.474 0.99-0.949 1.5-1.44 1.96-1.68 1.96-1.68 1.5-5.56h3v-5h-2c0.33-1.32 0.66-2.64 1-4 0.99 0.99 1.98 1.98 3 3v-4-3z" fill="#8CC704"/>
<path transform="translate(1011,665)" d="m0 0c1 3 1 3 0.167 5.08-0.661 1.18-0.661 1.18-1.34 2.38-0.481 0.866-0.963 1.73-1.46 2.62-0.515 0.902-1.03 1.8-1.56 2.73-0.496 0.89-0.991 1.78-1.5 2.7-2.6 4.63-5.32 9.1-8.31 13.5-0.768 1.21-1.53 2.43-2.29 3.65-0.384 0.612-0.768 1.22-1.16 1.86-0.794 1.27-1.58 2.54-2.37 3.81-1.01 1.6-2.09 3.14-3.18 4.68h-2c-0.202 0.664-0.405 1.33-0.613 2.01-1.92 4.13-4.67 7.32-7.57 10.8-0.592 0.717-1.18 1.43-1.79 2.17-3.93 4.74-7.88 9.46-12 14-0.63 0.696-0.63 0.696-1.27 1.41-1.45 1.6-2.9 3.19-4.35 4.78-0.456 0.5-0.912 1-1.38 1.51-4.73 5.16-9.62 9.82-15 14.3-1.16 1.17-1.16 1.17-2.35 2.37-7.29 7.24-15.7 13.5-23.8 19.8-2.74 2.14-5.45 4.3-8.1 6.55-2.54 2.08-5.07 3.64-7.95 5.2-2.71 1.61-5.12 3.56-7.56 5.54-2.58 1.77-5.25 3.07-8.06 4.43-4.82 2.44-9.43 5.3-14.1 8.06-4.57 2.68-9.14 5.04-14 7.12-3.38 1.48-6.63 3.19-9.9 4.88-6 3.05-12.1 5.66-18.4 7.99-2.47 0.923-4.85 1.92-7.25 3.01-14.9 6.72-30.1 12.1-46.1 15.4-2.79 0.582-2.79 0.582-5.57 2.68-2.4 0.528-4.76 0.978-7.19 1.38-5.5 0.957-10.9 2.11-16.2 3.56-7.05 1.86-14.2 3.1-21.4 4.25-1.04 0.167-2.08 0.334-3.14 0.506-5.03 0.779-10.1 1.48-15.1 2.05-0.876 0.0997-1.75 0.199-2.66 0.302-2.27-0.0403-2.27-0.0403-5.27-2.04 0.504-1.94 0.504-1.94 2-4 2.73-0.524 5.18-0.787 7.94-0.938 64.7-5.24 134-30.6 188-67.1 1.23-0.815 2.45-1.63 3.68-2.45 7.62-5.11 14.9-10.5 22-16.3 3.49-2.85 7.02-5.52 10.7-8.08 17.4-12.5 32.4-29.5 45.3-46.5 1.23-1.6 2.49-3.18 3.76-4.76 11.6-14.5 20.7-30.6 29.5-46.9z" fill="#000001"/>
<path transform="translate(1031,433)" d="m0 0v3c-1.86 1.82-1.86 1.82-4.31 3.69-0.801 0.623-1.6 1.25-2.43 1.89-2.26 1.43-2.26 1.43-5.26 1.43-0.33 0.99-0.66 1.98-1 3-2 1.46-2 1.46-4.56 2.94-0.911 0.525-1.82 1.05-2.76 1.59-3.51 1.93-7.07 3.73-10.7 5.47-2 0.998-4 2-6 3l-6 3c-0.915 0.478-0.915 0.478-1.85 0.966-4.85 2.5-9.74 4.46-14.9 6.22-1.27 0.439-1.27 0.439-2.57 0.887-24.4 8.33-49 16.5-74.1 22.1-3.56 0.825-7.04 1.82-10.6 2.82-2.24 0.607-4.48 1.21-6.72 1.8-1.26 0.336-2.53 0.673-3.83 1.02-1.32 0.35-2.64 0.701-3.95 1.05-1.27 0.339-2.55 0.678-3.86 1.03-1.27 0.339-2.55 0.678-3.86 1.03-0.639 0.17-1.28 0.341-1.94 0.517-3.28 0.874-6.56 1.74-9.84 2.6-5.91 1.55-11.8 3.15-17.5 5.15-6.79 2.22-13.7 4-20.6 5.9-10.3 2.84-10.3 2.84-20.4 6.1-3.23 1.08-6.48 2.08-9.73 3.08-18.7 5.73-18.7 5.73-37.2 12.4-4.13 1.6-8.29 3.09-12.5 4.56-0.723 0.255-1.45 0.51-2.19 0.772-3.55 1.24-7.1 2.45-10.7 3.6-5.53 1.82-10.8 4.16-16.2 6.44-1.55 0.643-3.09 1.28-4.64 1.93-7.51 3.12-15 6.24-22.2 10-2.31 1.14-4.65 2.08-7.05 3.01-9.08 3.53-17.7 8.18-26.1 13.1-0.577 0.334-1.15 0.669-1.75 1.01-1.98 1.15-3.96 2.32-5.94 3.49-0.63 0.368-1.26 0.736-1.91 1.11-4.15 2.48-7.72 5.26-11.4 8.39-1.98 1.26-1.98 1.26-3.62 2.12-3.28 1.72-3.28 1.72-5.69 3.62-1.69 1.25-1.69 1.25-3.69 1.25-0.33 0.99-0.66 1.98-1 3-1.43 1.25-2.92 2.42-4.44 3.56-5.62 4.48-10.7 9.37-15.8 14.4-0.756 0.747-1.51 1.49-2.29 2.26-4.42 4.44-8.36 9.01-12 14.1-0.468 0.545-0.937 1.09-1.42 1.65h-2c-0.235 0.705-0.469 1.41-0.711 2.14-1.53 3.4-3.52 5.83-5.91 8.68-0.817 0.976-1.63 1.95-2.48 2.96-0.626 0.736-1.25 1.47-1.9 2.23 0-4.11 2.1-6.37 4.44-9.56 0.452-0.624 0.903-1.25 1.37-1.89 4.05-5.52 8.53-10.5 13.2-15.5 1.07-1.25 2.13-2.5 3.19-3.75 8.72-9.97 18.3-19.2 28.8-27.2 0.829-0.643 0.829-0.643 1.67-1.3 8.79-6.8 17.9-12.5 27.6-17.8 2.19-1.21 4.29-2.54 6.4-3.88 24.5-14.8 52.7-25 79.3-35.1 0.976-0.37 0.976-0.37 1.97-0.747 55.8-21.1 114-37 171-51.9 44.7-11.6 92.3-23.9 130-52.3 1.49-0.99 1.49-0.99 3-2z" fill="#000001"/>
<path transform="translate(975,583)" d="m0 0c-7.28 4.18-15.1 6.18-23.1 8.44-3 0.867-5.95 1.87-8.9 2.88-5.05 1.69-10.2 3.13-15.3 4.65-1.13 0.339-2.25 0.678-3.41 1.03-1.04 0.309-2.07 0.619-3.14 0.938-3.24 1.03-3.24 1.03-6.5 2.49-4.18 1.79-8.43 3.24-12.7 4.7-10.4 3.56-20.5 7.66-30.6 11.9-2.04 0.854-4.09 1.7-6.14 2.53-5.54 2.27-10.9 4.74-16.2 7.46-1.67 0.667-3.33 1.33-5 2-1.95 0.937-3.88 1.91-5.8 2.89-1.42 0.719-2.84 1.43-4.27 2.13-24.1 11.9-47.8 24.8-69.6 40.4-1.69 1.19-3.4 2.35-5.12 3.48-3.47 2.33-6.85 4.77-10.2 7.25-0.653 0.481-1.31 0.962-1.98 1.46-13.3 9.8-26 20.1-38.3 31-1.35 1.17-2.77 2.27-4.19 3.34-2.12 1.8-3.75 3.53-5.54 5.64-4.02 4.64-8.33 8.93-12.7 13.2-1.51 1.48-3.02 2.97-4.52 4.46-0.657 0.646-1.31 1.29-1.99 1.96-1.86 1.87-1.86 1.87-3.68 4.77h-2c-0.356 0.833-0.356 0.833-0.719 1.68-1.58 2.86-3.56 4.99-5.78 7.38-2.41 2.6-4.53 4.99-6.5 7.94h-2c-0.211 0.664-0.423 1.33-0.641 2.01-1.84 4.04-4.41 7.3-7.11 10.8-0.513 0.674-1.03 1.35-1.55 2.04-2.11 2.78-4.24 5.55-6.36 8.32-0.532 0.7-1.06 1.4-1.61 2.12-0.718 0.942-0.718 0.942-1.45 1.9-1.74 2.46-3.04 5.06-4.28 7.8h-2c-0.103 0.557-0.206 1.11-0.312 1.69-0.827 2.78-2.17 4.83-3.69 7.31-9.85 17-19.4 34.1-26.8 52.4-1.23 2.6-1.23 2.6-3.23 3.6 0.664-5.17 2.91-9.62 5.06-14.3 0.605-1.33 0.605-1.33 1.22-2.68 16.7-36.5 38.3-71.1 66.1-100 2.29-2.4 4.49-4.84 6.64-7.36 5.13-5.91 10.7-11.4 16.3-16.9 1.92-1.93 3.84-3.86 5.75-5.79 7-7.04 14.1-13.6 21.9-19.7 1.27-1.02 2.53-2.05 3.79-3.08 3.72-3 7.46-5.97 11.2-8.92 0.593-0.467 1.19-0.935 1.8-1.42 19.2-15.1 40-28.4 61.2-40.6 0.718-0.416 1.44-0.832 2.18-1.26 30.9-17.8 63.6-31.8 96.8-44.7 0.932-0.367 1.86-0.734 2.83-1.11 13.1-5.13 26.5-9.21 40-13.3 0.882-0.265 1.76-0.531 2.67-0.804 2.55-0.765 5.11-1.52 7.66-2.28 0.759-0.227 1.52-0.453 2.3-0.687 3.77-1.11 7.55-2.14 11.4-3.07 0.709-0.174 1.42-0.349 2.15-0.528 2.28-0.279 3.87 0.0625 6.05 0.749z" fill="#000001"/>
<path transform="translate(716,592)" d="m0 0c0.603 0.168 1.21 0.335 1.83 0.508 0.799 0.204 1.6 0.407 2.42 0.617 1.18 0.313 1.18 0.313 2.39 0.633 2.83 0.291 3.9-0.429 6.36-1.76 2.14-0.195 2.14-0.195 4.25-0.125 1.24 0.0412 2.48 0.0825 3.75 0.125v2h4v7c-0.541-0.174-1.08-0.348-1.64-0.527-2.85-0.57-5.23-0.344-8.11-0.0352-0.985 0.102-1.97 0.204-2.98 0.309-0.748 0.0838-1.5 0.168-2.27 0.254v8c-2-3-2-3-1.62-5.69 0.206-0.763 0.413-1.53 0.625-2.31-0.99 0.33-1.98 0.66-3 1-0.733 2.02-0.733 2.02-1 4h-2c-0.495-1.49-0.495-1.49-1-3v3c-3.43 0.858-5.62 0.967-9 0l-1 1c-1.67 0.0406-3.33 0.0427-5 0v2c1.65-0.33 3.3-0.66 5-1 0.495 0.99 0.495 0.99 1 2-4.5 2.25-8.08 2.17-13 2-0.495 2.48-0.495 2.48-1 5h-3c-0.66 2.31-1.32 4.62-2 7h-2l-2-2v5c-0.99-0.33-1.98-0.66-3-1-0.33 0.99-0.66 1.98-1 3v-9h3v-3c-0.99 0.33-1.98 0.66-3 1-0.33 3.3-0.66 6.6-1 10-2.48 0.495-2.48 0.495-5 1-0.33 0.99-0.66 1.98-1 3-1.99 0.381-3.99 0.713-6 1l-1-1-2 2c-3.12 0.125-3.12 0.125-6 0v2h-2c-0.33 0.66-0.66 1.32-1 2-1.49-0.495-1.49-0.495-3-1-0.33 1.32-0.66 2.64-1 4-1.39-0.0928-1.39-0.0928-2.81-0.188-3.65 0.215-3.82 0.716-6.19 3.19-2.19-0.312-2.19-0.312-4-1l2-1c0.33-0.99 0.66-1.98 1-3h2v-2h2v-2c-0.784 0.474-1.57 0.949-2.38 1.44-4.15 2.47-6.38 2.67-11.2 2.62-1.19-0.00902-2.38-0.018-3.6-0.0273-0.915-0.0116-1.83-0.0232-2.77-0.0352 0.33-1.32 0.66-2.64 1-4h8c3.99-2.43 3.99-2.43 7.4-5.57 2.05-1.84 3.59-2.09 6.29-2.56 1.32-0.236 1.32-0.236 2.66-0.477 2.4-0.361 4.8-0.646 7.21-0.898 1.7-0.247 1.7-0.247 3.44-0.5l1-2h-2v-3h-2v-2c1.32-0.33 2.64-0.66 4-1 0.186-0.897 0.186-0.897 0.375-1.81 0.625-2.19 0.625-2.19 2.62-5.19 2.06-0.477 2.06-0.477 4.44-0.625 2.82-0.195 4.84-0.469 7.56-1.38v3c2.31-0.66 4.62-1.32 7-2 0.155-0.928 0.155-0.928 0.312-1.88 0.688-2.12 0.688-2.12 3.69-4.12 0.33-0.33 0.66-0.66 1-1 2.67-0.141 5.32-0.0425 8 0v2c1.65-0.114 3.29-0.241 4.94-0.375 0.917-0.0696 1.83-0.139 2.78-0.211 0.754-0.137 1.51-0.273 2.29-0.414 0.33-0.66 0.66-1.32 1-2-0.99-0.33-1.98-0.66-3-1 0.33-1.32 0.66-2.64 1-4v3h2v-3c2.97-0.495 2.97-0.495 6-1v-3z" fill="#8ECA04"/>
<path transform="translate(969,818)" d="m0 0 1 2c2.06 0.391 2.06 0.391 4.44 0.5 4.34 0.279 4.34 0.279 6.56 2.5h-2v2c-1.55 1.42-3.17 2.76-4.81 4.06-3.81 3.04-7.58 6.11-11.3 9.25-10.7 8.7-22 16.3-33.8 23.4-0.871 0.526-1.74 1.05-2.64 1.59-6.17 3.66-6.17 3.66-8.42 3.66v-2h2c-0.495-1.49-0.495-1.49-1-3 1-2.63 1.45-3.72 4-5-0.66-0.33-1.32-0.66-2-1v-6c0.99-0.33 1.98-0.66 3-1-0.371-0.536-0.742-1.07-1.12-1.62-1.24-3.37-0.273-5.16 1.12-8.38 0.66-0.66 1.32-1.32 2-2v2h2c0.33-0.99 0.66-1.98 1-3h3v-2c-0.66-0.33-1.32-0.66-2-1 1.65-0.33 3.3-0.66 5-1v-3h-2c0.33-0.99 0.66-1.98 1-3h3v-5c0.99 0.99 1.98 1.98 3 3 0.99-0.66 1.98-1.32 3-2v2c0.99-0.33 1.98-0.66 3-1 0.33-0.99 0.66-1.98 1-3h3v8h-6l2 2h2v3c0.99 0.33 1.98 0.66 3 1l1 2-1 1c3.96-0.66 7.92-1.32 12-2-0.66-1.32-1.32-2.64-2-4h-6c0.99-2.31 1.98-4.62 3-7 0.99 0.33 1.98 0.66 3 1 0.186-1.45 0.186-1.45 0.375-2.94 0.206-1.01 0.413-2.02 0.625-3.06 2.46-1.23 4.28-1.07 7-1z" fill="#8CCB05"/>
<path transform="translate(1057,459)" d="m0 0h2c0.33 2.31 0.66 4.62 1 7 0.626 0.049 1.25 0.098 1.9 0.148 0.817 0.0748 1.63 0.15 2.48 0.227 1.22 0.104 1.22 0.104 2.46 0.211 2.16 0.414 2.16 0.414 4.16 2.41 2.62-0.327 4.64-0.82 7-2 1.12 4.69 0.806 7.54-1 12h-1c-0.33 1.98-0.66 3.96-1 6 1.98-0.33 3.96-0.66 6-1v6l4 1h-3c-0.33 1.65-0.66 3.3-1 5-0.66-0.66-1.32-1.32-2-2-2.57-0.648-2.57-0.648-5-1v3c-4.93 1.97-8.78 2.18-14 2 0.0116 0.904 0.0232 1.81 0.0352 2.74 0.00902 1.18 0.018 2.36 0.0273 3.57 0.0116 1.17 0.0232 2.34 0.0352 3.55-0.0977 3.14-0.0977 3.14-1.1 6.14 1.32-0.66 2.64-1.32 4-2 0.66 0.99 1.32 1.98 2 3-3.75 3-3.75 3-6 3-0.33 0.66-0.66 1.32-1 2-1.32-0.33-2.64-0.66-4-1v3h-2c-0.773-5.46-1.14-10.7-1.1-16.2 0.00141-0.743 0.00283-1.49 0.00429-2.25 0.00554-2.34 0.0181-4.69 0.0309-7.03 0.00502-1.6 0.00958-3.2 0.0137-4.8 0.0109-3.9 0.0282-7.8 0.0488-11.7h2c-0.0412-1.22-0.0825-2.43-0.125-3.69-0.0126-3.59 0.727-5.99 2.12-9.31v-3.19c0-2.81 0-2.81 2-4.81z" fill="#8CC704"/>
<path transform="translate(1052,469)" d="m0 0h2c-0.33 3.63-0.66 7.26-1 11h-2c-0.0761 0.554-0.152 1.11-0.23 1.68-1.05 3.16-2.84 4.99-5.08 7.45-0.78 0.869-1.56 1.74-2.36 2.63-2.08 2.01-3.67 3.16-6.32 4.24v2c-2.41 1.75-4.81 3.39-7.31 5-0.69 0.451-1.38 0.902-2.09 1.37-1.29 0.843-2.58 1.68-3.88 2.52-1.58 1.02-3.15 2.07-4.72 3.11-2.69 0.125-2.69 0.125-5 0-0.33-1.65-0.66-3.3-1-5h-7c-0.33-1.65-0.66-3.3-1-5h2v3h2c-0.495-1.49-0.495-1.49-1-3 1.32-1.32 2.64-2.64 4-4-0.33-0.66-0.66-1.32-1-2 1.32-0.33 2.64-0.66 4-1v-4c0.908 0.0825 1.82 0.165 2.75 0.25 3.27 0.06 3.27 0.06 5.31-1.94 0.639-0.763 1.28-1.53 1.94-2.31 2.31-2.75 2.31-2.75 5-5 3.81-0.312 3.81-0.312 7 0-0.0206-0.784-0.0412-1.57-0.0625-2.38 0.0625-2.62 0.0625-2.62 1.06-4.62h5v1c3.65 0.341 3.65 0.341 6.75-1.38 1.32-1.61 1.32-1.61 2.25-3.62z" fill="#8CCB05"/>
<path transform="translate(907,506)" d="m0 0h5c-0.66 1.32-1.32 2.64-2 4 1.98-0.33 3.96-0.66 6-1v2c0.619-0.186 1.24-0.371 1.88-0.562 2.12-0.438 2.12-0.438 4.12 0.562 0.495 0.99 0.495 0.99 1 2 0.66-0.66 1.32-1.32 2-2 0.66 0.99 1.32 1.98 2 3h-2v2c1.32-0.33 2.64-0.66 4-1-0.66 1.32-1.32 2.64-2 4h-2v-2h-2c-0.33 2.31-0.66 4.62-1 7h-2v2c-1.25 0.508-2.5 1.01-3.75 1.5-0.696 0.278-1.39 0.557-2.11 0.844-3.69 1.13-7.26 0.556-11 0.0938-3.92-0.417-7.26-0.354-11.1 0.562v2c-6.43 0.495-6.43 0.495-13 1v-2h-6v-5h-2c0.33-1.32 0.66-2.64 1-4 2.53 2.36 3.89 3.66 5 7 0.66-1.65 1.32-3.3 2-5h2l2-2h4v-3h2l-2-2v-3c1.32-0.33 2.64-0.66 4-1v2c1.65-0.33 3.3-0.66 5-1-0.33-0.99-0.66-1.98-1-3 1.45 0.0309 1.45 0.0309 2.94 0.0625 2.94 0.294 2.94 0.294 4.06-1.06 1.67-0.0406 3.33-0.0427 5 0v-3z" fill="#8CCB05"/>
<path transform="translate(837,840)" d="m0 0c6.62-0.25 6.62-0.25 10 2 2.72 0.313 5.24 0.133 8 0 0.33-0.33 0.66-0.66 1-1 1.43-0.0989 2.87-0.13 4.31-0.125 1.17-0.00387 1.17-0.00387 2.36-0.00781 2.32 0.133 2.32 0.133 4.43 0.703 2.1 0.649 2.1 0.649 4.89-0.57 0.99 0.33 1.98 0.66 3 1v8c-1.98 0.99-1.98 0.99-4 2-0.495-0.99-0.495-0.99-1-2-0.33 0.66-0.66 1.32-1 2h-2c-0.495-2.97-0.495-2.97-1-6-0.99 0.33-1.98 0.66-3 1v-3h-6c1.32 0.33 2.64 0.66 4 1v8c-0.99 0.33-1.98 0.66-3 1v3h3c-0.33 1.32-0.66 2.64-1 4-0.66-0.33-1.32-0.66-2-1-0.33 0.99-0.66 1.98-1 3v-2c-1.32 0.33-2.64 0.66-4 1v4c-4.89 2.39-8.43 3.64-14 3-1.94-1.38-1.94-1.38-3-3v-2c-1.65 0.66-3.3 1.32-5 2v-3h-2c-0.0425-2-0.0408-4 0-6 0.33-0.33 0.66-0.66 1-1 0.0723-1.85 0.0838-3.71 0.0625-5.56-0.00902-1.01-0.018-2.02-0.0273-3.07-0.0116-0.782-0.0232-1.56-0.0352-2.37 0.99 0.33 1.98 0.66 3 1 0.33 2.64 0.66 5.28 1 8h2v-7c1.46 0.0174 1.46 0.0174 2.96 0.0352 1.27 0.00902 2.54 0.018 3.86 0.0273 1.9 0.0174 1.9 0.0174 3.83 0.0352 3.35 0.0639 3.35 0.0639 6.36-1.1-3.32-1.11-6.2-1.32-9.69-1.56-1.77-0.126-1.77-0.126-3.57-0.254-1.36-0.0909-1.36-0.0909-2.74-0.184v-4z" fill="#8CCB05"/>
<path transform="translate(701,871)" d="m0 0c0.33 0.66 0.66 1.32 1 2 2.29 0.507 2.29 0.507 4.94 0.688 1.34 0.13 1.34 0.13 2.71 0.262 2.37 0.234 2.37 0.234 4.35-0.949 1.48-0.0701 2.96-0.0844 4.44-0.0625 1.17 0.0135 1.17 0.0135 2.37 0.0273 0.723 0.0116 1.45 0.0232 2.19 0.0352h3c0.66 0.99 1.32 1.98 2 3-0.33 0.99-0.66 1.98-1 3 2.48 0.99 2.48 0.99 5 2v2c-0.804-0.0206-1.61-0.0412-2.44-0.0625-2.5-0.234-2.5-0.234-3.56 1.06h5c0.495 0.99 0.495 0.99 1 2 0.99 0.33 1.98 0.66 3 1 1.19 2.56 1.19 2.56 2 5-0.99 0.33-1.98 0.66-3 1-0.495-1.49-0.495-1.49-1-3-0.66-0.33-1.32-0.66-2-1 0.495 2.48 0.495 2.48 1 5-2.67-0.667-5.33-1.33-8-2-0.33 1.65-0.66 3.3-1 5h-2v-2c-0.66-0.33-1.32-0.66-2-1 0.33-0.66 0.66-1.32 1-2-0.619-0.144-1.24-0.289-1.88-0.438-2.12-0.562-2.12-0.562-4.12-1.56v3c-1.31 1.69-1.31 1.69-3 3h-3c-0.33 1.65-0.66 3.3-1 5-2-1-2-1-3-3-0.99-0.33-1.98-0.66-3-1 0.33-1.65 0.66-3.3 1-5 0.33 0.66 0.66 1.32 1 2h2c-0.66-1.32-1.32-2.64-2-4-4.65 0.485-4.65 0.485-9 2-1.12-2.25-1.12-2.25-2-5 0.875-2.31 0.875-2.31 2-4h6c0.681-1.89 0.681-1.89 1-4-1.93-2.22-1.93-2.22-5-3 0.33-0.66 0.66-1.32 1-2h-2v-2c1.21 0.0309 1.21 0.0309 2.44 0.0625 2.5 0.234 2.5 0.234 3.56-1.06z" fill="#8CCB05"/>
<path transform="translate(776,869)" d="m0 0c2 0 3.99-0.00177 5.99-0.0312 2.42 0.0377 4.66 0.445 7.01 1.03-0.458 3.47-0.891 6.67-2 10-2.69 1.5-2.69 1.5-6 3-1.07 0.557-2.14 1.11-3.25 1.69-2.75 1.31-2.75 1.31-4.75 1.31-0.33 0.66-0.66 1.32-1 2h-2v-3c-0.99 0.33-1.98 0.66-3 1v-2h-2v2c-2.97 0.33-5.94 0.66-9 1-0.33 1.65-0.66 3.3-1 5-1.32 0.33-2.64 0.66-4 1v-5c-1.05 0.0174-1.05 0.0174-2.12 0.0352-0.91 0.00902-1.82 0.018-2.76 0.0273-1.36 0.0174-1.36 0.0174-2.74 0.0352-2.38-0.0977-2.38-0.0977-4.38-1.1-0.594-2.65-0.742-5.29-1-8h2c0.474 0.639 0.949 1.28 1.44 1.94 1.47 2.35 1.47 2.35 4.56 3.06 3.15-0.883 3.15-0.883 6-2-0.33-1.65-0.66-3.3-1-5-0.99-0.33-1.98-0.66-3-1 1.98-0.66 3.96-1.32 6-2v-3c2 1 2 1 4 4 0.33 0.99 0.66 1.98 1 3 1.66 0.382 3.32 0.714 5 1 1.5-1.5 1.33-2.99 1.56-5.06 0.144-1.3 0.289-2.6 0.438-3.94 6.62-2.12 6.62-2.12 10-1z" fill="#8CCB05"/>
<path transform="translate(557,656)" d="m0 0c1 3 1 3 0.145 4.8-0.44 0.645-0.879 1.29-1.33 1.95-0.46 0.703-0.92 1.41-1.39 2.13-0.468 0.7-0.936 1.4-1.42 2.12-3.15 4.56-3.15 4.56-3.75 9.94 0.247 0.681 0.495 1.36 0.75 2.06 1.32-0.66 2.64-1.32 4-2 0.33 3.96 0.66 7.92 1 12-0.99 0.495-0.99 0.495-2 1-0.907 2.11-0.907 2.11-1.62 4.56-0.26 0.826-0.521 1.65-0.789 2.5-0.193 0.638-0.387 1.28-0.586 1.93h-2c-0.33 1.32-0.66 2.64-1 4-0.897 0.155-0.897 0.155-1.81 0.312-3.3 1.04-4.72 2.86-6.4 5.84-0.384 0.773-0.768 1.55-1.16 2.34-2.04 3.82-3.7 5.54-7.62 7.5-0.33 0.99-0.66 1.98-1 3h2v2c0.66 0.33 1.32 0.66 2 1-4.75 2-4.75 2-7 2 1.87-8.14 4.22-15.9 7.19-23.8 0.396-1.04 0.792-2.09 1.2-3.17 3.34-8.67 7.16-16.9 11.6-25.1 0.431-0.793 0.861-1.59 1.3-2.4 8.26-15.2 8.26-15.2 9.7-16.6z" fill="#74A905"/>
<path transform="translate(844,657)" d="m0 0h5c0.155 0.959 0.155 0.959 0.312 1.94 0.34 1.02 0.34 1.02 0.688 2.06 0.99 0.33 1.98 0.66 3 1-0.75 1.94-0.75 1.94-2 4-1.94 0.562-1.94 0.562-4 1-0.619 0.712-0.619 0.712-1.25 1.44-2.82 2.52-6.09 2.78-9.75 3.56 0.495 2.48 0.495 2.48 1 5-0.928 0.268-1.86 0.536-2.81 0.812-2.95 1.1-4.24 1.81-6.19 4.19v-2c-0.66-0.33-1.32-0.66-2-1v2h-2v2c-1.68 1.04-1.68 1.04-3.88 2.19-3.46 2.04-4 2.44-5.38 6.44-0.247 1.11-0.495 2.23-0.75 3.38-2 1.69-2 1.69-4 3-0.309 0.66-0.619 1.32-0.938 2-1.46 2.75-3.32 3.63-6.06 5h-2c-0.66 1.32-1.32 2.64-2 4-2-2-2-2-2.06-5.44 0.0206-1.18 0.0412-2.35 0.0625-3.56-0.495-1.49-0.495-1.49-1-3h5c0.66-1.32 1.32-2.64 2-4h2c-0.495-1.49-0.495-1.49-1-3l4-4c0.495-0.577 0.99-1.15 1.5-1.75 1.5-1.25 1.5-1.25 5.5-1.25 0.99-0.33 1.98-0.66 3-1h4v-4c1.32-0.33 2.64-0.66 4-1 0.33-1.98 0.66-3.96 1-6 1.32-0.33 2.64-0.66 4-1 0.186-1.21 0.186-1.21 0.375-2.44 0.206-0.846 0.413-1.69 0.625-2.56 3.21-1.61 6.44-1.06 10-1 0.144-0.784 0.289-1.57 0.438-2.38 0.562-2.62 0.562-2.62 1.56-4.62z" fill="#8CCB05"/>
<path transform="translate(915,850)" d="m0 0h6v6c0.99 0.33 1.98 0.66 3 1-2 3-2 3-3 4-0.362 1.33-0.697 2.66-1 4h-2v3c-2.69 1.27-5.37 2.54-8.06 3.81-0.752 0.356-1.5 0.713-2.28 1.08-2.22 1.05-4.44 2.08-6.66 3.11-0.66 0.311-1.32 0.622-2 0.942-4.15 1.89-6.55 2.25-11 1.06v-5c3.98-1.17 7.92-2.26 12-3v-2h4v-3c0.742-0.144 1.49-0.289 2.25-0.438 2.27-0.464 4.51-0.981 6.75-1.56-2.79-2.79-5.09-2.32-8.91-2.46-2.09-0.539-2.09-0.539-3.38-2.58-0.237-0.647-0.474-1.29-0.719-1.96 1.65 0.33 3.3 0.66 5 1-0.99-0.66-1.98-1.32-3-2 0-2 0-2 2-4h3v2c2.64-0.33 5.28-0.66 8-1v-2z" fill="#8CC704"/>
<path transform="translate(699,828)" d="m0 0c3 1 3 1 4.38 3.5 1.39 2.75 1.39 2.75 4.23 3.16 1.19 0.17 1.19 0.17 2.4 0.344-0.262 0.544-0.524 1.09-0.794 1.65-1.2 2.49-2.39 4.98-3.58 7.48-0.413 0.856-0.825 1.71-1.25 2.59-4.62 8.77-4.62 8.77-4.38 18.3-1.49 0.495-1.49 0.495-3 1-1.5-1.31-1.5-1.31-3-3v-3c-1.98 0.495-1.98 0.495-4 1v-4c-0.66-0.33-1.32-0.66-2-1 0.266-0.617 0.531-1.23 0.805-1.87 2.14-5.12 3.75-9.93 4.61-15.4 0.195-0.566 0.389-1.13 0.59-1.71 0.99-0.33 1.98-0.66 3-1 0.692-1.85 0.692-1.85 1-4l1-4z" fill="#8CCB05"/>
<path transform="translate(1030 644)" d="m0 0c2.5 1.25 2.5 1.25 4.5 4.25-0.516 0.784-1.03 1.57-1.56 2.38-0.474 0.866-0.949 1.73-1.44 2.62 0.33 0.66 0.66 1.32 1 2-0.33 0.99-0.66 1.98-1 3h-2v2h-2c0.165 0.763 0.33 1.53 0.5 2.31 0.5 2.69 0.5 2.69 0.5 5.69-3 2-3 2-6 2-0.0825 0.949-0.165 1.9-0.25 2.88-0.75 3.12-0.75 3.12-2.69 4.56-2.06 0.562-2.06 0.562-4.06-0.438-0.195-6.05-0.195-6.05 0-8l2-2c0.398-1.99 0.738-3.99 1-6h-2c0.33-1.98 0.66-3.96 1-6l2 2c2.87-2.42 3.64-4.52 4.56-8.12 0.691-2.7 0.691-2.7 1.44-4.88 2-1 2-1 4.5-0.25z" fill="#8CCB05"/>
<path transform="translate(1055,601)" d="m0 0c0.66 1.32 1.32 2.64 2 4l3-3c0.66 0.33 1.32 0.66 2 1v8c4.16-0.656 4.16-0.656 8.25-1.62 1.75-0.375 1.75-0.375 3.75 0.625-1.75 2-1.75 2-4 4h-4v2c1.65-0.33 3.3-0.66 5-1-0.33 0.99-0.66 1.98-1 3h-3v4h-4c-0.33 1.65-0.66 3.3-1 5-3.03 0.229-5.97 0.349-9 0-2.06-1.81-2.06-1.81-3-4v-3h3c2.11-4.93 1.75-7.05 0-12 0.521-5.52 0.521-5.52 2-7z" fill="#8CC704"/>
<path transform="translate(525,728)" d="m0 0c0.33 0.99 0.66 1.98 1 3h2c2.13 7.74 2.2 15 2 23h-2c0.186 0.516 0.371 1.03 0.562 1.56 0.592 3.3-0.033 6.14-0.562 9.44v4h-2c-0.124-1.13-0.247-2.27-0.375-3.44-0.206-1.18-0.413-2.35-0.625-3.56-0.66-0.33-1.32-0.66-2-1-0.881 2.75-0.968 4.61-0.812 7.56-0.0619 1.13-0.124 2.27-0.188 3.44-2.01 1.71-2.01 1.71-4 3-1.16-16.1 3.05-31.5 7-47z" fill="#8DC904"/>
<path transform="translate(534,854)" d="m0 0h1c-0.117 1.65-0.244 3.29-0.375 4.94-0.0696 0.917-0.139 1.83-0.211 2.78-0.328 2.6-0.784 4.99-1.39 7.53-1.14 4.96-1.66 9.88-2.09 14.9-0.0838 0.939-0.168 1.88-0.254 2.85-0.677 7.96-1.05 15.9-1.25 23.9-0.0424 1.3-0.0424 1.3-0.0857 2.63-0.0187 0.761-0.0374 1.52-0.0566 2.31-0.322 2.38-1.11 4.05-2.29 6.12-4.59-10.4-4.59-10.4-4-16h-1c-0.56-3.12-1.09-6.25-1.62-9.38-0.16-0.889-0.32-1.78-0.484-2.7-0.142-0.851-0.284-1.7-0.43-2.58-0.136-0.786-0.272-1.57-0.413-2.38-0.0239-0.976-0.0239-0.976-0.0483-1.97 0.66-0.66 1.32-1.32 2-2 0.413 0.825 0.825 1.65 1.25 2.5 0.577 0.825 1.15 1.65 1.75 2.5h4v-12h2c-0.0348-1.05-0.0348-1.05-0.0703-2.12-0.152-8.01 0.83-14.5 4.07-21.9zm-12 45 1 2zm2 10 1 3z" fill="#8CCB05"/>
<path transform="translate(1075,470)" d="m0 0c0.66 0.33 1.32 0.66 2 1v8h-1c-0.33 1.98-0.66 3.96-1 6 1.98-0.33 3.96-0.66 6-1v6l4 1h-3c-0.33 1.65-0.66 3.3-1 5-0.66-0.66-1.32-1.32-2-2-2.57-0.648-2.57-0.648-5-1v3c-4.5 1.76-8.18 2.19-13 2 1.03-3.08 1.75-3.84 4-6 0.66-0.99 1.32-1.98 2-3-0.33-0.99-0.66-1.98-1-3h2c0.0619-0.536 0.124-1.07 0.188-1.62 1.19-3.49 3.37-5.62 5.81-8.38-0.33-0.66-0.66-1.32-1-2h2v-4z" fill="#8EC904"/>
<path transform="translate(1046,553)" d="m0 0c0.289 0.639 0.578 1.28 0.875 1.94 0.953 2.21 0.953 2.21 3.12 3.06v12c0.66 0.33 1.32 0.66 2 1 0.33 0.99 0.66 1.98 1 3h-3c-0.133 1.2-0.266 2.41-0.402 3.65-0.178 1.58-0.357 3.15-0.535 4.73-0.087 0.794-0.174 1.59-0.264 2.41-0.686 5.99-0.686 5.99-1.8 8.22h-2c-0.33-1.98-0.66-3.96-1-6-0.99-0.33-1.98-0.66-3-1 0.724-7.25 1.84-14.4 3.06-21.6 0.186-1.1 0.373-2.21 0.564-3.35 0.455-2.7 0.913-5.39 1.37-8.09z" fill="#89C304"/>
<path transform="translate(775,690)" d="m0 0c-0.33 0.99-0.66 1.98-1 3h-2v7h-2v2c0.99 0.33 1.98 0.66 3 1v2h-8v-2c-0.742 0.206-1.49 0.413-2.25 0.625-3.07 0.419-4.18-0.00551-6.75-1.62-0.125-2.38-0.125-2.38 0-5 2-2 2-2 3.95-2.2 2.02 0.0651 4.04 0.13 6.05 0.195v-3c3.13-1.86 5.37-2.2 9-2z" fill="#8CCB05"/>
<path transform="translate(871,639)" d="m0 0h5c3 5.62 3 5.62 3 9-2.08 2.01-2.08 2.01-4.81 4.12-1.34 1.06-1.34 1.06-2.71 2.13-2.48 1.74-2.48 1.74-5.48 2.74 0.66-2.64 1.32-5.28 2-8h-6c-0.33-0.99-0.66-1.98-1-3-0.371-0.681-0.742-1.36-1.12-2.06-0.289-0.639-0.577-1.28-0.875-1.94 0.33-0.66 0.66-1.32 1-2h2c0.66 0.99 1.32 1.98 2 3 1.81 1.01 1.81 1.01 4 1 2.73-1.35 2.73-1.35 5-3l-2-2z" fill="#8CCC06"/>
<path transform="translate(603,619)" d="m0 0c0.66 0.99 1.32 1.98 2 3 3.58 0.25 3.58 0.25 7 0v6c-0.66-0.33-1.32-0.66-2-1-2.76 0-5.3 0.426-8 1-0.33 0.66-0.66 1.32-1 2-0.99 1.49-0.99 1.49-2 3 0.33 0.66 0.66 1.32 1 2h-7c-0.33-0.66-0.66-1.32-1-2h2c1.47-3.81 0.433-6.29-1-10 1.65-0.33 3.3-0.66 5-1v-2c2-1 2-1 5-1z" fill="#8CCB05"/>
<path transform="translate(965,735)" d="m0 0c0.99 0.33 1.98 0.66 3 1 0.33 1.98 0.66 3.96 1 6-1.32 0.33-2.64 0.66-4 1-0.33 1.32-0.66 2.64-1 4h-3c-1.68 1.42-1.68 1.42-3.19 3.31-0.53 0.615-1.06 1.23-1.61 1.86-1.48 1.88-1.48 1.88-1.21 4.82-1.65-0.33-3.3-0.66-5-1-0.33-0.99-0.66-1.98-1-3 0.736-0.797 1.47-1.59 2.23-2.41 0.986-1.07 1.97-2.14 2.96-3.21 0.483-0.522 0.966-1.04 1.46-1.58 3.23-3.51 6.32-7.11 9.35-10.8z" fill="#8CC704"/>
<path transform="translate(1054,408)" d="m0 0c2 3 2 3 3 6-0.988 1.63-0.988 1.63-2.53 3.36-0.817 0.933-0.817 0.933-1.65 1.88-0.581 0.643-1.16 1.29-1.76 1.95-0.865 0.981-0.865 0.981-1.75 1.98-1.43 1.62-2.87 3.23-4.31 4.83-0.66-0.33-1.32-0.66-2-1-2.77 0-3.58 1.18-5.62 3-0.632 0.557-1.26 1.11-1.91 1.69-0.482 0.433-0.964 0.866-1.46 1.31-0.66-0.33-1.32-0.66-2-1 0.834-0.727 1.67-1.45 2.53-2.2 7.53-6.69 13.8-13.5 19.5-21.8z" fill="#8DC804"/>
<path transform="translate(1066,589)" d="m0 0c0.33 0.99 0.66 1.98 1 3 1.65-0.66 3.3-1.32 5-2 1.54 3.09 0.55 5.64 0 9-0.186 1.3-0.371 2.6-0.562 3.94-0.144 1.01-0.289 2.02-0.438 3.06h-2c0.33-2.31 0.66-4.62 1-7-1.65 0.33-3.3 0.66-5 1 0.66 0.66 1.32 1.32 2 2h-3c-0.33 0.66-0.66 1.32-1 2-2.07-1.64-2.91-2.66-3.56-5.25 0.862-4.21 3.63-6.72 6.56-9.75z" fill="#8CCB05"/>
<path transform="translate(978,719)" d="m0 0h4c-0.309 0.681-0.619 1.36-0.938 2.06-1.25 2.96-1.25 2.96-1.12 6.38-1.28 4.88-3.81 5.99-8 8.5-0.638 0.352-1.28 0.704-1.93 1.07-1.29-2.07-1.29-2.07-2-5 1.44-2.6 2.77-4.56 4.62-6.81 0.452-0.597 0.905-1.19 1.37-1.81 1.36-1.71 1.36-1.71 4-4.38z" fill="#8CC704"/>
<path transform="translate(685,633)" d="m0 0c0.33 1.32 0.66 2.64 1 4-4.31 3.08-4.31 3.08-7.81 2.69-0.722-0.227-1.44-0.454-2.19-0.688v6c-0.66-0.99-1.32-1.98-2-3-0.66 1.32-1.32 2.64-2 4h-4v-6c0.784-0.268 1.57-0.536 2.38-0.812 2.91-1.04 2.91-1.04 4.62-4.19 3.44-1.77 6.15-2.22 10-2z" fill="#8CC704"/>
<path transform="translate(599,691)" d="m0 0h7c0.33 2.64 0.66 5.28 1 8-3.09 0.853-5.79 1-9 1-0.33 1.65-0.66 3.3-1 5-1.32 0.33-2.64 0.66-4 1v-8c2.08-0.553 3.84-1 6-1-0.186-0.619-0.371-1.24-0.562-1.88-0.438-2.12-0.438-2.12 0.562-4.12z" fill="#8CCB05"/>
<path transform="translate(672,906)" d="m0 0v3c1.44 1.69 1.44 1.69 3 3-0.892 0.0606-1.78 0.121-2.7 0.184-1.76 0.126-1.76 0.126-3.55 0.254-1.16 0.0812-2.32 0.162-3.52 0.246-2.54 0.249-4.79 0.598-7.23 1.32-0.33-0.99-0.66-1.98-1-3l2-2v-2c-0.66-0.33-1.32-0.66-2-1 5.04-1.51 9.88-0.646 15 0z" fill="#8CC804"/>
<path transform="translate(556,780)" d="m0 0c1 2 1 2 0.443 3.96-0.315 0.793-0.63 1.59-0.954 2.4-0.344 0.881-0.688 1.76-1.04 2.67-0.374 0.937-0.748 1.87-1.13 2.84-0.745 1.91-1.49 3.81-2.23 5.72-0.36 0.926-0.72 1.85-1.09 2.81-1.83 4.81-3.45 9.69-4.99 14.6-1.57-4.87-0.336-9.18 1-14 0.516-0.949 1.03-1.9 1.56-2.88 2.22-4.83 2.19-9.86 2.44-15.1 0.804-0.309 1.61-0.619 2.44-0.938 2.45-0.826 2.45-0.826 3.56-2.06z" fill="#8CCC06"/>
<path transform="translate(522,759)" d="m0 0c0.33 0.66 0.66 1.32 1 2 0.99 0.33 1.98 0.66 3 1 1.48 7.63 0.239 12-3 19-0.33 0.99-0.66 1.98-1 3-0.66-0.33-1.32-0.66-2-1-0.125-6.51-0.125-6.51 0.504-8.95 0.55-2.27 0.56-4.22 0.496-6.55-0.0834-3.04 0.148-5.57 1-8.5z" fill="#8CCB05"/>
<path transform="translate(1e3 504)" d="m0 0h13c0.33 0.99 0.66 1.98 1 3h-2c0.99 1.32 1.98 2.64 3 4l-6 3v-2c-0.566-0.133-1.13-0.266-1.71-0.402-0.733-0.177-1.47-0.353-2.22-0.535-1.1-0.261-1.1-0.261-2.21-0.527-1.85-0.535-1.85-0.535-2.85-1.54v-5z" fill="#8CC704"/>
<path transform="translate(1048,573)" d="m0 0c2.44 3.7 1.94 6.3 1.19 10.6-0.288 1.7-0.288 1.7-0.582 3.44-0.605 3-0.605 3-1.61 6h-2c-0.33-1.98-0.66-3.96-1-6-0.99-0.33-1.98-0.66-3-1 0.114-1.48 0.241-2.96 0.375-4.44 0.0696-0.824 0.139-1.65 0.211-2.5 0.205-1.02 0.205-1.02 0.414-2.07l2-1c0.66 0.66 1.32 1.32 2 2 0.66-1.65 1.32-3.3 2-5z" fill="#86C205"/>
<path transform="translate(854 530)" d="m0 0c1.67 0.0619 1.67 0.0619 3.38 0.125 2.03 3.73 3 5.67 3 10-2.75 0.75-2.75 0.75-6 1-2.38-1.75-2.38-1.75-4-4v-3l-2-2c2-2 2-2 5.62-2.12z" fill="#8CCB05"/>
<path transform="translate(711,718)" d="m0 0h3c0.33 0.99 0.66 1.98 1 3-0.577 0.227-1.15 0.454-1.75 0.688-2.41 1.22-2.41 1.22-4.06 3.62-2.28 2.8-4.52 4.5-7.5 6.48-1.75 1.19-1.75 1.19-3.27 2.86-1.41 1.35-1.41 1.35-3.41 1.35 0.585-3.66 2.08-5.55 4.56-8.25 0.641-0.706 1.28-1.41 1.94-2.14 0.741-0.797 0.741-0.797 1.5-1.61l2 2c0.33-0.99 0.66-1.98 1-3h2c0.309-0.639 0.619-1.28 0.938-1.94 1.06-2.06 1.06-2.06 2.06-3.06z" fill="#8CC704"/>
<path transform="translate(533,704)" d="m0 0 2 2c-0.375 3.12-0.375 3.12-1 6 0.99-0.33 1.98-0.66 3-1-1.35 4.53-2.97 5.73-7 8-0.33 0.99-0.66 1.98-1 3h2v2c0.66 0.33 1.32 0.66 2 1-4.75 2-4.75 2-7 2 1.82-7.9 4.07-15.4 7-23z" fill="#699904"/>
<path transform="translate(810,685)" d="m0 0c-0.33 0.66-0.66 1.32-1 2-2.06 0.625-2.06 0.625-4 1v5h-2c-0.66 1.65-1.32 3.3-2 5-1.65-0.33-3.3-0.66-5-1-0.312-3.31-0.312-3.31 0-7 2.4-1.96 3.88-3 7-3 0.33-0.66 0.66-1.32 1-2 3-1 3-1 6 0z" fill="#8CC704"/>
<path transform="translate(1008,693)" d="m0 0h3v11h-4c0.33-1.32 0.66-2.64 1-4h-3c0.33 1.32 0.66 2.64 1 4-0.99 0.495-0.99 0.495-2 1-2.12-0.938-2.12-0.938-4-2 0.33-2.31 0.66-4.62 1-7 0.99-0.33 1.98-0.66 3-1l3 3c0.33-1.65 0.66-3.3 1-5z" fill="#8CCB05"/>
<path transform="translate(525,728)" d="m0 0c0.33 0.99 0.66 1.98 1 3h2c-0.115 1.44-0.242 2.88-0.375 4.31-0.0696 0.801-0.139 1.6-0.211 2.43-0.414 2.26-0.414 2.26-2.41 5.26-0.451 2.05-0.451 2.05-0.625 4.19-0.124 1.26-0.247 2.52-0.375 3.81-1.32-0.66-2.64-1.32-4-2 2.48-10.4 2.48-10.4 5-21z" fill="#76A803"/>
<path transform="translate(533,724)" d="m0 0c0.33 0.99 0.66 1.98 1 3 0.33 0.66 0.66 1.32 1 2l2-2c1.15 2.83 1.08 3.81-0.125 6.69-1.88 2.31-1.88 2.31-4.56 3.12-0.763 0.0619-1.53 0.124-2.31 0.188-2-7.62-2-7.62-2-11 1.65-0.66 3.3-1.32 5-2z" fill="#8CCB05"/>
<path transform="translate(1071,533)" d="m0 0c1.48 0.99 1.48 0.99 3 2 0.33-0.66 0.66-1.32 1-2l6 3v2c-0.99 0.33-1.98 0.66-3 1 0.33 0.66 0.66 1.32 1 2h-2v2c-2.31-0.66-4.62-1.32-7-2 0.33-2.64 0.66-5.28 1-8z" fill="#8ECA04"/>
<path transform="translate(636,646)" d="m0 0c2.97 0.495 2.97 0.495 6 1v2h2v3h-2v2h2v3c1.32 0.66 2.64 1.32 4 2-1.28 0.144-2.56 0.289-3.88 0.438-2.38 0.269-3.97 0.485-6.12 1.56 0.33-2.31 0.66-4.62 1-7 0.33 0.99 0.66 1.98 1 3h2c-2.04-4.06-2.04-4.06-6-6v-5z" fill="#8CCB05"/>
<path transform="translate(812,659)" d="m0 0c1.32 0.66 2.64 1.32 4 2-0.33 0.66-0.66 1.32-1 2-0.356 1.66-0.692 3.33-1 5-0.99 0.33-1.98 0.66-3 1-0.33-0.66-0.66-1.32-1-2h-2v2h-2c-0.375-2.75-0.375-2.75 0-6 3-2.38 3-2.38 6-4z" fill="#8CCB05"/>
<path transform="translate(995,806)" d="m0 0c0.66 0.33 1.32 0.66 2 1l-14 14c-0.99-0.66-1.98-1.32-3-2 1.5-4.34 4.02-5.05 8-7 2.43-1.89 4.73-3.92 7-6z" fill="#8CCC06"/>
<path transform="translate(525,904)" d="m0 0h2c2.01 6.38 2 11.4 1 18-3.15-3.97-4.23-7-3.83-12.2 0.238-1.95 0.531-3.89 0.832-5.84z" fill="#8CC704"/>
<path transform="translate(671,868)" d="m0 0h3c2 3 2 3 2 7h4c0.66 1.65 1.32 3.3 2 5-2.78-0.376-4.59-0.673-6.81-2.44-1.19-1.56-1.19-1.56-1.19-3.56-0.99 0.33-1.98 0.66-3 1-1.12-4.75-1.12-4.75 0-7z" fill="#8CCC06"/>
<path transform="translate(815,676)" d="m0 0c4.75-0.125 4.75-0.125 7 1v5h-4c-0.33 0.66-0.66 1.32-1 2h-2c-0.99 0.495-0.99 0.495-2 1-0.33-0.99-0.66-1.98-1-3 1.44-2.62 1.44-2.62 3-5v-1z" fill="#8CC704"/>
<path transform="translate(542,818)" d="m0 0c1.37 4.4 0.243 7.93-0.938 12.2-0.293 1.12-0.293 1.12-0.592 2.26-0.482 1.83-0.975 3.66-1.47 5.49-2.28-3.59-2.17-6.39-1.88-10.6 0.0645-1.14 0.129-2.27 0.195-3.44 0.68-3 0.68-3 2.73-4.9 0.642-0.362 1.28-0.724 1.95-1.1z" fill="#8CCC06"/>
<path transform="translate(1035,604)" d="m0 0c3.2 6.2 3.2 6.2 2.06 10.7-0.351 1.09-0.701 2.19-1.06 3.31h-2c-0.33 0.99-0.66 1.98-1 3-1.12-1.58-1.12-1.58-2-4 0.68-3.23 0.68-3.23 1.88-6.75 0.389-1.17 0.779-2.34 1.18-3.55 0.312-0.892 0.624-1.78 0.945-2.7z" fill="#78AB03"/>
<path transform="translate(1054,408)" d="m0 0c2 3 2 3 3 6-1.43 2.04-1.43 2.04-3.44 4.19-0.659 0.715-1.32 1.43-2 2.17-0.775 0.814-0.775 0.814-1.57 1.64-0.66-0.66-1.32-1.32-2-2 0.99-0.66 1.98-1.32 3-2-0.33-0.33-0.66-0.66-1-1-1.32 0.99-2.64 1.98-4 3 1.41-3.04 3.09-5.59 5.12-8.25 0.808-1.06 0.808-1.06 1.63-2.14 0.41-0.531 0.82-1.06 1.24-1.61z" fill="#597F03"/>
<path transform="translate(779,719)" d="m0 0h5c1.12 3.75 1.12 3.75 0 6h-2c-0.66 1.32-1.32 2.64-2 4-0.99-0.33-1.98-0.66-3-1 0.66-2.97 1.32-5.94 2-9z" fill="#8CCB05"/>
<path transform="translate(784,848)" d="m0 0c0.66 0.99 1.32 1.98 2 3-2 1.69-2 1.69-5 3-2.84-0.631-5.38-1.73-8-3 5.91-4.53 5.91-4.53 11-3z" fill="#8CC704"/>
<path transform="translate(618,609)" d="m0 0c1.32 0.33 2.64 0.66 4 1l-2 1v2c1.65-0.99 3.3-1.98 5-3-0.33 1.32-0.66 2.64-1 4-1.09 0.103-2.19 0.206-3.31 0.312-3.54 0.661-4.62 0.89-6.69 3.69-0.66-1.32-1.32-2.64-2-4 1.31-1.5 1.31-1.5 3-3h3v-2z" fill="#8CCC06"/>
<path transform="translate(838,536)" d="m0 0h1v8c-0.33-0.66-0.66-1.32-1-2-0.568 0.0954-1.14 0.191-1.72 0.289-5.41 0.776-9.14 0.57-14.3-1.29 0.33-0.66 0.66-1.32 1-2h8v2h6c0.33-1.65 0.66-3.3 1-5z" fill="#8CCC06"/>
<path transform="translate(596,643)" d="m0 0c-0.99 1.49-0.99 1.49-2 3-0.699 1.98-0.699 1.98-1.19 4.06-0.179 0.692-0.358 1.38-0.543 2.1-0.462 1.93-0.462 1.93 0.73 3.84-0.99-0.33-1.98-0.66-3-1v-6h-1v-6c3.01-0.934 3.87-1.04 7 0z" fill="#8CCC06"/>
<path transform="translate(708,880)" d="m0 0c2.06 0.438 2.06 0.438 4 1v8h-5c-0.0977-6.15-0.0977-6.15 0-8l1-1z" fill="#8ECA04"/>
<path transform="translate(671 567)" d="m0 0c1.23 0.153 1.23 0.153 2.48 0.309 0.94 0.126 0.94 0.126 1.9 0.254-2.33 3.5-3.21 3.63-7.12 4.69-1.37 0.377-1.37 0.377-2.76 0.762-0.699 0.182-1.4 0.364-2.12 0.551 0-3 0-3 1-6 2.52-1.26 3.85-0.919 6.62-0.562z" fill="#8CC704"/>
<path transform="translate(1e3 793)" d="m0 0h2c0.438 2.62 0.438 2.62 0 6-2.09 2.33-4.46 4.17-7 6 0.33-2.31 0.66-4.62 1-7h2c0.66-1.65 1.32-3.3 2-5z" fill="#8CCC06"/>
<path transform="translate(524,772)" d="m0 0h2c-0.99 3.63-1.98 7.26-3 11h-3c-0.125-6.75-0.125-6.75 1-9h3v-2z" fill="#8FCA04"/>
<path transform="translate(1039,589)" d="m0 0h1c0.756 5.23 1.21 9.77 0 15h-2v-2c-0.66-0.33-1.32-0.66-2-1 0.99-3.96 1.98-7.92 3-12z" fill="#70A003"/>
<path transform="translate(1047,726)" d="m0 0c1.94 0.312 1.94 0.312 4 1 1 3 1 3 0.223 5.04-0.383 0.708-0.766 1.42-1.16 2.14-0.38 0.715-0.761 1.43-1.15 2.17-0.451 0.814-0.451 0.814-0.91 1.64-0.961-2.88-1.11-4.7-1.06-7.69 0.00902-0.808 0.018-1.62 0.0273-2.45 0.0116-0.615 0.0232-1.23 0.0352-1.86z" fill="#8CCC06"/>
<path transform="translate(874,627)" d="m0 0c-0.33 1.32-0.66 2.64-1 4-1.65 0.33-3.3 0.66-5 1-0.33-0.99-0.66-1.98-1-3-0.99-0.33-1.98-0.66-3-1 3.85-2.57 5.59-1.83 10-1z" fill="#8EC904"/>
<path transform="translate(647,909)" d="m0 0c-0.33 1.32-0.66 2.64-1 4-2.97 0.66-5.94 1.32-9 2v-4c1.29-0.336 2.58-0.669 3.88-1 0.719-0.186 1.44-0.371 2.18-0.562 1.95-0.438 1.95-0.438 3.95-0.438z" fill="#8CC704"/>
<path transform="translate(938,849)" d="m0 0-2 1c0.33 0.99 0.66 1.98 1 3-3.09 1.76-4.23 2-8 2v-5c3.2-1.07 5.66-1.07 9-1z" fill="#8CC704"/>
<path transform="translate(570 652)" d="m0 0c0.598 0.227 1.2 0.454 1.81 0.688-0.33 1.98-0.66 3.96-1 6-1.98 0.33-3.96 0.66-6 1-0.231-2.84-0.359-4.46 1.25-6.88 1.75-1.12 1.75-1.12 3.94-0.812z" fill="#8CCB05"/>
<path transform="translate(1066,550)" d="m0 0h4v6h-2c-0.33 0.66-0.66 1.32-1 2-0.99-0.66-1.98-1.32-3-2 0.66-1.98 1.32-3.96 2-6z" fill="#8FCA04"/>
<path transform="translate(529,715)" d="m0 0c1 4 1 4 0 7h2v2c0.66 0.33 1.32 0.66 2 1-4.75 2-4.75 2-7 2 0.99-3.96 1.98-7.92 3-12z" fill="#6E9C03"/>
<path transform="translate(866,549)" d="m0 0c1.5 1.38 1.5 1.38 3 3v2h-2v2c-2.97-0.495-2.97-0.495-6-1v-3c2.5-1.69 2.5-1.69 5-3z" fill="#8CCC06"/>
<path transform="translate(1077,349)" d="m0 0c1.4 4.19 2.69 8.19 1.06 12.4-0.351 0.516-0.701 1.03-1.06 1.56-1.97-4.75-2.08-7.98-1-13 0.33-0.33 0.66-0.66 1-1z" fill="#80BB06"/>
<path transform="translate(833,275)" d="m0 0c14.8 0.964 14.8 0.964 21 2-3.22 1.94-5.23 2.16-8.94 1.69-0.875-0.111-1.75-0.222-2.65-0.336-0.795-0.116-1.59-0.232-2.41-0.352-0.99-0.144-1.98-0.289-3-0.438-2-0.562-2-0.562-4-2.56z" fill="#000002"/>
<path transform="translate(684,559)" d="m0 0c2.97 0.495 2.97 0.495 6 1v3h-2c-0.33 0.66-0.66 1.32-1 2-1.32-0.33-2.64-0.66-4-1 0.33-1.65 0.66-3.3 1-5z" fill="#8CC704"/>
<path transform="translate(981,523)" d="m0 0c2.97 0.33 5.94 0.66 9 1-3.13 2.64-6.09 3.84-10 5 0.33-1.98 0.66-3.96 1-6z" fill="#8CC704"/>
<path transform="translate(1045,420)" d="m0 0c0 3 0 3-1.83 5.23-1.2 1.19-1.2 1.19-2.42 2.4-0.789 0.797-1.58 1.59-2.39 2.41-2.26 1.88-3.5 2.58-6.36 2.96 4.33-4.33 8.67-8.67 13-13z" fill="#000002"/>
<path transform="translate(657,648)" d="m0 0c1.68 0.286 3.34 0.618 5 1-0.188 1.88-0.188 1.88-1 4-2.56 1.25-2.56 1.25-5 2-0.0425-2-0.0408-4 0-6l1-1z" fill="#8CC704"/>
<path transform="translate(1059,556)" d="m0 0c0.99 0.33 1.98 0.66 3 1 0.286 8.57 0.286 8.57-2 12-0.772-4.44-1-8.51-1-13z" fill="#8CC704"/>
<path transform="translate(942,782)" d="m0 0c1.65 0.33 3.3 0.66 5 1 0.0425 2 0.0408 4 0 6-1 1-1 1-3.56 1.06-0.804-0.0206-1.61-0.0412-2.44-0.0625 0.33-0.99 0.66-1.98 1-3 1.98 0.495 1.98 0.495 4 1-0.66-0.619-1.32-1.24-2-1.88-2-2.12-2-2.12-2-4.12z" fill="#8CCC06"/>
<path transform="translate(1077,604)" d="m0 0c2 1.06 2 1.06 4 3 0.25 3.69 0.25 3.69 0 7-0.66-0.33-1.32-0.66-2-1v-5c-0.99 1.49-0.99 1.49-2 3h-2c0.66-2.31 1.32-4.62 2-7z" fill="#8CC704"/>
<path transform="translate(781,562)" d="m0 0h2c1.62 2.5 1.62 2.5 3 5-1.32 1.32-2.64 2.64-4 4-2-3-2-3-1.62-6.19 0.206-0.928 0.413-1.86 0.625-2.81z" fill="#8ECA04"/>
<path transform="translate(1098,500)" d="m0 0h1v10h-1v-10z" fill="#000002"/>
<path transform="translate(489,704)" d="m0 0c0.99 1.49 0.99 1.49 2 3-0.33 0.99-0.66 1.98-1 3-0.33-1.98-0.66-3.96-1-6z" fill="#000001"/>
<path transform="translate(484,673)" d="m0 0h1v7h-1v-7z" fill="#000002"/>
<path transform="translate(1092,424)" d="m0 0h1v6h-1v-6z" fill="#000002"/>
<path transform="translate(437,681)" d="m0 0h1v5h-1v-5z" fill="#08602A"/>
<path transform="translate(436,673)" d="m0 0h1v5h-1v-5z" fill="#08602A"/>
<path transform="translate(1163,614)" d="m0 0h1v5h-1v-5z" fill="#000002"/>
<path transform="translate(1160,585)" d="m0 0h1v5h-1v-5z" fill="#000002"/>
<path transform="translate(1077,345)" d="m0 0c0.33 0.99 0.66 1.98 1 3-0.99 0.495-0.99 0.495-2 1 0.33-1.32 0.66-2.64 1-4z" fill="#000002"/>
<path transform="translate(493,720)" d="m0 0 1 4z" fill="#000002"/>
<path transform="translate(492,716)" d="m0 0 1 4z" fill="#000102"/>
<path transform="translate(488,699)" d="m0 0 1 4z" fill="#000002"/>
<path transform="translate(483,665)" d="m0 0 1 4z" fill="#000002"/>
<path transform="translate(1098,524)" d="m0 0 1 4z" fill="#000002"/>
<path transform="translate(1087,392)" d="m0 0 1 4z" fill="#000002"/>
</svg>
